M48
; DRILL file {KiCad (5.1.10)-1} date 06/04/21 17:59:42
; FORMAT={-:-/ absolute / inch / decimal}
; #@! TF.CreationDate,2021-06-04T17:59:42+02:00
; #@! TF.GenerationSoftware,Kicad,Pcbnew,(5.1.10)-1
; #@! TF.FileFunction,Plated,1,4,PTH
FMAT,2
INCH
T1C0.0157
T2C0.0276
T3C0.0354
T4C0.0394
T5C0.0472
T6C0.0551
%
G90
G05
T1
X3.05Y-4.15
X3.2Y-4.7
X3.3Y-4.8
X3.35Y-4.75
X3.55Y-3.65
X3.65Y-4.7008
X3.7Y-4.7313
X3.7Y-4.9
X3.81Y-4.49
X5.8Y-2.05
X6.05Y-5.25
T2
X3.0Y-4.35
X3.0Y-4.4248
X3.1Y-3.4752
X3.1Y-3.55
X3.5252Y-5.85
X3.6Y-5.85
X3.7Y-4.1
X3.7Y-4.3
X4.0Y-4.75
X4.0Y-4.95
X4.2935Y-2.7376
X4.2935Y-2.9376
X5.0781Y-3.8955
X5.0781Y-4.0955
X5.2262Y-2.5167
X5.2262Y-2.5915
X5.5Y-1.6252
X5.5Y-1.7
X5.5Y-2.0
X5.5Y-2.2
X5.7Y-1.85
X5.7Y-2.05
X5.8Y-0.95
X5.8Y-1.0248
X5.8Y-5.5
X5.8Y-5.7
X5.835Y-1.465
X5.835Y-2.415
X5.835Y-3.115
X5.8687Y-1.3837
X5.8687Y-1.5463
X5.8687Y-2.3337
X5.8687Y-2.4963
X5.8687Y-3.0337
X5.8687Y-3.1963
X5.95Y-1.35
X5.95Y-1.5799
X5.95Y-2.3
X5.95Y-2.5299
X5.95Y-3.0
X5.95Y-3.2299
X6.0313Y-1.3837
X6.0313Y-1.5463
X6.0313Y-2.3337
X6.0313Y-2.4963
X6.0313Y-3.0337
X6.0313Y-3.1963
X6.065Y-1.465
X6.065Y-2.415
X6.065Y-3.115
X6.1Y-3.5752
X6.1Y-3.65
X6.1Y-4.35
X6.1Y-4.4248
X7.2752Y-2.1
X7.35Y-2.1
X7.35Y-2.35
X7.35Y-2.55
X7.65Y-2.9252
X7.65Y-3.0
T3
X2.3079Y-4.3
X2.3079Y-5.0913
X2.8Y-4.3
X2.8Y-5.0913
X7.15Y-1.5
X7.15Y-1.6
X7.15Y-2.55
X7.15Y-2.65
X7.15Y-3.35
X7.15Y-3.45
T4
X3.1Y-5.3094
X3.1Y-5.9
T5
X2.95Y-2.9
X3.6587Y-2.9
X3.9Y-3.5913
X3.9Y-4.3
X3.95Y-5.0913
X3.95Y-5.8
X3.9787Y-2.5254
X3.9787Y-3.2341
X4.65Y-4.55
X4.65Y-5.2587
T6
X6.55Y-1.4
X6.55Y-1.7
X6.55Y-2.35
X6.55Y-2.65
X6.55Y-3.15
X6.55Y-3.45
T0
M30
