%TF.GenerationSoftware,KiCad,Pcbnew,(5.1.10)-1*%
%TF.CreationDate,2021-06-04T17:59:31+02:00*%
%TF.ProjectId,_Real_EEE3088Project,5f526561-6c5f-4454-9545-333038385072,rev?*%
%TF.SameCoordinates,Original*%
%TF.FileFunction,Other,Comment*%
%FSLAX46Y46*%
G04 Gerber Fmt 4.6, Leading zero omitted, Abs format (unit mm)*
G04 Created by KiCad (PCBNEW (5.1.10)-1) date 2021-06-04 17:59:31*
%MOMM*%
%LPD*%
G01*
G04 APERTURE LIST*
%ADD10C,0.150000*%
%ADD11C,0.080000*%
G04 APERTURE END LIST*
D10*
X210201428Y-192492380D02*
X210296666Y-192492380D01*
X210391904Y-192540000D01*
X210439523Y-192587619D01*
X210487142Y-192682857D01*
X210534761Y-192873333D01*
X210534761Y-193111428D01*
X210487142Y-193301904D01*
X210439523Y-193397142D01*
X210391904Y-193444761D01*
X210296666Y-193492380D01*
X210201428Y-193492380D01*
X210106190Y-193444761D01*
X210058571Y-193397142D01*
X210010952Y-193301904D01*
X209963333Y-193111428D01*
X209963333Y-192873333D01*
X210010952Y-192682857D01*
X210058571Y-192587619D01*
X210106190Y-192540000D01*
X210201428Y-192492380D01*
X210868095Y-192492380D02*
X211487142Y-192492380D01*
X211153809Y-192873333D01*
X211296666Y-192873333D01*
X211391904Y-192920952D01*
X211439523Y-192968571D01*
X211487142Y-193063809D01*
X211487142Y-193301904D01*
X211439523Y-193397142D01*
X211391904Y-193444761D01*
X211296666Y-193492380D01*
X211010952Y-193492380D01*
X210915714Y-193444761D01*
X210868095Y-193397142D01*
X212630000Y-192444761D02*
X211772857Y-193730476D01*
X213153809Y-192492380D02*
X213249047Y-192492380D01*
X213344285Y-192540000D01*
X213391904Y-192587619D01*
X213439523Y-192682857D01*
X213487142Y-192873333D01*
X213487142Y-193111428D01*
X213439523Y-193301904D01*
X213391904Y-193397142D01*
X213344285Y-193444761D01*
X213249047Y-193492380D01*
X213153809Y-193492380D01*
X213058571Y-193444761D01*
X213010952Y-193397142D01*
X212963333Y-193301904D01*
X212915714Y-193111428D01*
X212915714Y-192873333D01*
X212963333Y-192682857D01*
X213010952Y-192587619D01*
X213058571Y-192540000D01*
X213153809Y-192492380D01*
X214344285Y-192492380D02*
X214153809Y-192492380D01*
X214058571Y-192540000D01*
X214010952Y-192587619D01*
X213915714Y-192730476D01*
X213868095Y-192920952D01*
X213868095Y-193301904D01*
X213915714Y-193397142D01*
X213963333Y-193444761D01*
X214058571Y-193492380D01*
X214249047Y-193492380D01*
X214344285Y-193444761D01*
X214391904Y-193397142D01*
X214439523Y-193301904D01*
X214439523Y-193063809D01*
X214391904Y-192968571D01*
X214344285Y-192920952D01*
X214249047Y-192873333D01*
X214058571Y-192873333D01*
X213963333Y-192920952D01*
X213915714Y-192968571D01*
X213868095Y-193063809D01*
X215582380Y-192444761D02*
X214725238Y-193730476D01*
X215868095Y-192587619D02*
X215915714Y-192540000D01*
X216010952Y-192492380D01*
X216249047Y-192492380D01*
X216344285Y-192540000D01*
X216391904Y-192587619D01*
X216439523Y-192682857D01*
X216439523Y-192778095D01*
X216391904Y-192920952D01*
X215820476Y-193492380D01*
X216439523Y-193492380D01*
X217058571Y-192492380D02*
X217153809Y-192492380D01*
X217249047Y-192540000D01*
X217296666Y-192587619D01*
X217344285Y-192682857D01*
X217391904Y-192873333D01*
X217391904Y-193111428D01*
X217344285Y-193301904D01*
X217296666Y-193397142D01*
X217249047Y-193444761D01*
X217153809Y-193492380D01*
X217058571Y-193492380D01*
X216963333Y-193444761D01*
X216915714Y-193397142D01*
X216868095Y-193301904D01*
X216820476Y-193111428D01*
X216820476Y-192873333D01*
X216868095Y-192682857D01*
X216915714Y-192587619D01*
X216963333Y-192540000D01*
X217058571Y-192492380D01*
X217772857Y-192587619D02*
X217820476Y-192540000D01*
X217915714Y-192492380D01*
X218153809Y-192492380D01*
X218249047Y-192540000D01*
X218296666Y-192587619D01*
X218344285Y-192682857D01*
X218344285Y-192778095D01*
X218296666Y-192920952D01*
X217725238Y-193492380D01*
X218344285Y-193492380D01*
X219296666Y-193492380D02*
X218725238Y-193492380D01*
X219010952Y-193492380D02*
X219010952Y-192492380D01*
X218915714Y-192635238D01*
X218820476Y-192730476D01*
X218725238Y-192778095D01*
X180309523Y-167982380D02*
X180880952Y-167982380D01*
X180595238Y-168982380D02*
X180595238Y-167982380D01*
X181642857Y-168982380D02*
X181642857Y-168458571D01*
X181595238Y-168363333D01*
X181500000Y-168315714D01*
X181309523Y-168315714D01*
X181214285Y-168363333D01*
X181642857Y-168934761D02*
X181547619Y-168982380D01*
X181309523Y-168982380D01*
X181214285Y-168934761D01*
X181166666Y-168839523D01*
X181166666Y-168744285D01*
X181214285Y-168649047D01*
X181309523Y-168601428D01*
X181547619Y-168601428D01*
X181642857Y-168553809D01*
X182119047Y-168982380D02*
X182119047Y-168315714D01*
X182119047Y-167982380D02*
X182071428Y-168030000D01*
X182119047Y-168077619D01*
X182166666Y-168030000D01*
X182119047Y-167982380D01*
X182119047Y-168077619D01*
X182595238Y-168315714D02*
X182595238Y-168982380D01*
X182595238Y-168410952D02*
X182642857Y-168363333D01*
X182738095Y-168315714D01*
X182880952Y-168315714D01*
X182976190Y-168363333D01*
X183023809Y-168458571D01*
X183023809Y-168982380D01*
X183880952Y-168934761D02*
X183785714Y-168982380D01*
X183595238Y-168982380D01*
X183500000Y-168934761D01*
X183452380Y-168839523D01*
X183452380Y-168458571D01*
X183500000Y-168363333D01*
X183595238Y-168315714D01*
X183785714Y-168315714D01*
X183880952Y-168363333D01*
X183928571Y-168458571D01*
X183928571Y-168553809D01*
X183452380Y-168649047D01*
X185119047Y-168982380D02*
X185119047Y-167982380D01*
X185357142Y-167982380D01*
X185500000Y-168030000D01*
X185595238Y-168125238D01*
X185642857Y-168220476D01*
X185690476Y-168410952D01*
X185690476Y-168553809D01*
X185642857Y-168744285D01*
X185595238Y-168839523D01*
X185500000Y-168934761D01*
X185357142Y-168982380D01*
X185119047Y-168982380D01*
X186500000Y-168934761D02*
X186404761Y-168982380D01*
X186214285Y-168982380D01*
X186119047Y-168934761D01*
X186071428Y-168839523D01*
X186071428Y-168458571D01*
X186119047Y-168363333D01*
X186214285Y-168315714D01*
X186404761Y-168315714D01*
X186500000Y-168363333D01*
X186547619Y-168458571D01*
X186547619Y-168553809D01*
X186071428Y-168649047D01*
X188071428Y-168458571D02*
X188214285Y-168506190D01*
X188261904Y-168553809D01*
X188309523Y-168649047D01*
X188309523Y-168791904D01*
X188261904Y-168887142D01*
X188214285Y-168934761D01*
X188119047Y-168982380D01*
X187738095Y-168982380D01*
X187738095Y-167982380D01*
X188071428Y-167982380D01*
X188166666Y-168030000D01*
X188214285Y-168077619D01*
X188261904Y-168172857D01*
X188261904Y-168268095D01*
X188214285Y-168363333D01*
X188166666Y-168410952D01*
X188071428Y-168458571D01*
X187738095Y-168458571D01*
X189166666Y-168315714D02*
X189166666Y-168982380D01*
X188738095Y-168315714D02*
X188738095Y-168839523D01*
X188785714Y-168934761D01*
X188880952Y-168982380D01*
X189023809Y-168982380D01*
X189119047Y-168934761D01*
X189166666Y-168887142D01*
X189547619Y-168315714D02*
X189785714Y-168982380D01*
X190023809Y-168315714D02*
X189785714Y-168982380D01*
X189690476Y-169220476D01*
X189642857Y-169268095D01*
X189547619Y-169315714D01*
X190357142Y-168934761D02*
X190452380Y-168982380D01*
X190642857Y-168982380D01*
X190738095Y-168934761D01*
X190785714Y-168839523D01*
X190785714Y-168791904D01*
X190738095Y-168696666D01*
X190642857Y-168649047D01*
X190500000Y-168649047D01*
X190404761Y-168601428D01*
X190357142Y-168506190D01*
X190357142Y-168458571D01*
X190404761Y-168363333D01*
X190500000Y-168315714D01*
X190642857Y-168315714D01*
X190738095Y-168363333D01*
X191976190Y-168601428D02*
X192738095Y-168601428D01*
X193214285Y-168982380D02*
X193214285Y-167982380D01*
X193452380Y-167982380D01*
X193595238Y-168030000D01*
X193690476Y-168125238D01*
X193738095Y-168220476D01*
X193785714Y-168410952D01*
X193785714Y-168553809D01*
X193738095Y-168744285D01*
X193690476Y-168839523D01*
X193595238Y-168934761D01*
X193452380Y-168982380D01*
X193214285Y-168982380D01*
X194547619Y-168458571D02*
X194690476Y-168506190D01*
X194738095Y-168553809D01*
X194785714Y-168649047D01*
X194785714Y-168791904D01*
X194738095Y-168887142D01*
X194690476Y-168934761D01*
X194595238Y-168982380D01*
X194214285Y-168982380D01*
X194214285Y-167982380D01*
X194547619Y-167982380D01*
X194642857Y-168030000D01*
X194690476Y-168077619D01*
X194738095Y-168172857D01*
X194738095Y-168268095D01*
X194690476Y-168363333D01*
X194642857Y-168410952D01*
X194547619Y-168458571D01*
X194214285Y-168458571D01*
X195404761Y-168506190D02*
X195404761Y-168982380D01*
X195071428Y-167982380D02*
X195404761Y-168506190D01*
X195738095Y-167982380D01*
X195928571Y-167982380D02*
X196500000Y-167982380D01*
X196214285Y-168982380D02*
X196214285Y-167982380D01*
X196785714Y-168696666D02*
X197261904Y-168696666D01*
X196690476Y-168982380D02*
X197023809Y-167982380D01*
X197357142Y-168982380D01*
X197690476Y-168982380D02*
X197690476Y-167982380D01*
X198357142Y-167982380D02*
X198452380Y-167982380D01*
X198547619Y-168030000D01*
X198595238Y-168077619D01*
X198642857Y-168172857D01*
X198690476Y-168363333D01*
X198690476Y-168601428D01*
X198642857Y-168791904D01*
X198595238Y-168887142D01*
X198547619Y-168934761D01*
X198452380Y-168982380D01*
X198357142Y-168982380D01*
X198261904Y-168934761D01*
X198214285Y-168887142D01*
X198166666Y-168791904D01*
X198119047Y-168601428D01*
X198119047Y-168363333D01*
X198166666Y-168172857D01*
X198214285Y-168077619D01*
X198261904Y-168030000D01*
X198357142Y-167982380D01*
X199309523Y-167982380D02*
X199404761Y-167982380D01*
X199500000Y-168030000D01*
X199547619Y-168077619D01*
X199595238Y-168172857D01*
X199642857Y-168363333D01*
X199642857Y-168601428D01*
X199595238Y-168791904D01*
X199547619Y-168887142D01*
X199500000Y-168934761D01*
X199404761Y-168982380D01*
X199309523Y-168982380D01*
X199214285Y-168934761D01*
X199166666Y-168887142D01*
X199119047Y-168791904D01*
X199071428Y-168601428D01*
X199071428Y-168363333D01*
X199119047Y-168172857D01*
X199166666Y-168077619D01*
X199214285Y-168030000D01*
X199309523Y-167982380D01*
X200595238Y-168982380D02*
X200023809Y-168982380D01*
X200309523Y-168982380D02*
X200309523Y-167982380D01*
X200214285Y-168125238D01*
X200119047Y-168220476D01*
X200023809Y-168268095D01*
X179666666Y-170632380D02*
X179666666Y-169632380D01*
X180000000Y-170346666D01*
X180333333Y-169632380D01*
X180333333Y-170632380D01*
X180809523Y-170632380D02*
X180809523Y-169965714D01*
X180809523Y-169632380D02*
X180761904Y-169680000D01*
X180809523Y-169727619D01*
X180857142Y-169680000D01*
X180809523Y-169632380D01*
X180809523Y-169727619D01*
X181714285Y-170584761D02*
X181619047Y-170632380D01*
X181428571Y-170632380D01*
X181333333Y-170584761D01*
X181285714Y-170537142D01*
X181238095Y-170441904D01*
X181238095Y-170156190D01*
X181285714Y-170060952D01*
X181333333Y-170013333D01*
X181428571Y-169965714D01*
X181619047Y-169965714D01*
X181714285Y-170013333D01*
X182142857Y-170632380D02*
X182142857Y-169632380D01*
X182571428Y-170632380D02*
X182571428Y-170108571D01*
X182523809Y-170013333D01*
X182428571Y-169965714D01*
X182285714Y-169965714D01*
X182190476Y-170013333D01*
X182142857Y-170060952D01*
X183428571Y-170584761D02*
X183333333Y-170632380D01*
X183142857Y-170632380D01*
X183047619Y-170584761D01*
X183000000Y-170489523D01*
X183000000Y-170108571D01*
X183047619Y-170013333D01*
X183142857Y-169965714D01*
X183333333Y-169965714D01*
X183428571Y-170013333D01*
X183476190Y-170108571D01*
X183476190Y-170203809D01*
X183000000Y-170299047D01*
X184333333Y-170632380D02*
X184333333Y-170108571D01*
X184285714Y-170013333D01*
X184190476Y-169965714D01*
X184000000Y-169965714D01*
X183904761Y-170013333D01*
X184333333Y-170584761D02*
X184238095Y-170632380D01*
X184000000Y-170632380D01*
X183904761Y-170584761D01*
X183857142Y-170489523D01*
X183857142Y-170394285D01*
X183904761Y-170299047D01*
X184000000Y-170251428D01*
X184238095Y-170251428D01*
X184333333Y-170203809D01*
X184952380Y-170632380D02*
X184857142Y-170584761D01*
X184809523Y-170489523D01*
X184809523Y-169632380D01*
X186047619Y-170346666D02*
X186523809Y-170346666D01*
X185952380Y-170632380D02*
X186285714Y-169632380D01*
X186619047Y-170632380D01*
X187095238Y-170632380D02*
X187000000Y-170584761D01*
X186952380Y-170489523D01*
X186952380Y-169632380D01*
X187333333Y-169965714D02*
X187714285Y-169965714D01*
X187476190Y-169632380D02*
X187476190Y-170489523D01*
X187523809Y-170584761D01*
X187619047Y-170632380D01*
X187714285Y-170632380D01*
X188000000Y-170584761D02*
X188095238Y-170632380D01*
X188285714Y-170632380D01*
X188380952Y-170584761D01*
X188428571Y-170489523D01*
X188428571Y-170441904D01*
X188380952Y-170346666D01*
X188285714Y-170299047D01*
X188142857Y-170299047D01*
X188047619Y-170251428D01*
X188000000Y-170156190D01*
X188000000Y-170108571D01*
X188047619Y-170013333D01*
X188142857Y-169965714D01*
X188285714Y-169965714D01*
X188380952Y-170013333D01*
X188857142Y-170632380D02*
X188857142Y-169632380D01*
X189285714Y-170632380D02*
X189285714Y-170108571D01*
X189238095Y-170013333D01*
X189142857Y-169965714D01*
X189000000Y-169965714D01*
X188904761Y-170013333D01*
X188857142Y-170060952D01*
X190190476Y-169965714D02*
X190190476Y-170632380D01*
X189761904Y-169965714D02*
X189761904Y-170489523D01*
X189809523Y-170584761D01*
X189904761Y-170632380D01*
X190047619Y-170632380D01*
X190142857Y-170584761D01*
X190190476Y-170537142D01*
X190809523Y-170632380D02*
X190714285Y-170584761D01*
X190666666Y-170489523D01*
X190666666Y-169632380D01*
X191571428Y-170584761D02*
X191476190Y-170632380D01*
X191285714Y-170632380D01*
X191190476Y-170584761D01*
X191142857Y-170489523D01*
X191142857Y-170108571D01*
X191190476Y-170013333D01*
X191285714Y-169965714D01*
X191476190Y-169965714D01*
X191571428Y-170013333D01*
X191619047Y-170108571D01*
X191619047Y-170203809D01*
X191142857Y-170299047D01*
X192047619Y-170632380D02*
X192047619Y-169965714D01*
X192047619Y-170156190D02*
X192095238Y-170060952D01*
X192142857Y-170013333D01*
X192238095Y-169965714D01*
X192333333Y-169965714D01*
X192666666Y-170251428D02*
X193428571Y-170251428D01*
X193857142Y-170346666D02*
X194333333Y-170346666D01*
X193761904Y-170632380D02*
X194095238Y-169632380D01*
X194428571Y-170632380D01*
X195238095Y-170632380D02*
X194761904Y-170632380D01*
X194761904Y-169632380D01*
X195428571Y-169632380D02*
X196000000Y-169632380D01*
X195714285Y-170632380D02*
X195714285Y-169632380D01*
X196333333Y-170632380D02*
X196333333Y-169632380D01*
X196666666Y-170346666D01*
X197000000Y-169632380D01*
X197000000Y-170632380D01*
X197476190Y-170632380D02*
X197476190Y-169632380D01*
X198523809Y-170537142D02*
X198476190Y-170584761D01*
X198333333Y-170632380D01*
X198238095Y-170632380D01*
X198095238Y-170584761D01*
X198000000Y-170489523D01*
X197952380Y-170394285D01*
X197904761Y-170203809D01*
X197904761Y-170060952D01*
X197952380Y-169870476D01*
X198000000Y-169775238D01*
X198095238Y-169680000D01*
X198238095Y-169632380D01*
X198333333Y-169632380D01*
X198476190Y-169680000D01*
X198523809Y-169727619D01*
X199142857Y-169632380D02*
X199238095Y-169632380D01*
X199333333Y-169680000D01*
X199380952Y-169727619D01*
X199428571Y-169822857D01*
X199476190Y-170013333D01*
X199476190Y-170251428D01*
X199428571Y-170441904D01*
X199380952Y-170537142D01*
X199333333Y-170584761D01*
X199238095Y-170632380D01*
X199142857Y-170632380D01*
X199047619Y-170584761D01*
X199000000Y-170537142D01*
X198952380Y-170441904D01*
X198904761Y-170251428D01*
X198904761Y-170013333D01*
X198952380Y-169822857D01*
X199000000Y-169727619D01*
X199047619Y-169680000D01*
X199142857Y-169632380D01*
X200095238Y-169632380D02*
X200190476Y-169632380D01*
X200285714Y-169680000D01*
X200333333Y-169727619D01*
X200380952Y-169822857D01*
X200428571Y-170013333D01*
X200428571Y-170251428D01*
X200380952Y-170441904D01*
X200333333Y-170537142D01*
X200285714Y-170584761D01*
X200190476Y-170632380D01*
X200095238Y-170632380D01*
X200000000Y-170584761D01*
X199952380Y-170537142D01*
X199904761Y-170441904D01*
X199857142Y-170251428D01*
X199857142Y-170013333D01*
X199904761Y-169822857D01*
X199952380Y-169727619D01*
X200000000Y-169680000D01*
X200095238Y-169632380D01*
X200761904Y-169632380D02*
X201380952Y-169632380D01*
X201047619Y-170013333D01*
X201190476Y-170013333D01*
X201285714Y-170060952D01*
X201333333Y-170108571D01*
X201380952Y-170203809D01*
X201380952Y-170441904D01*
X201333333Y-170537142D01*
X201285714Y-170584761D01*
X201190476Y-170632380D01*
X200904761Y-170632380D01*
X200809523Y-170584761D01*
X200761904Y-170537142D01*
X180023809Y-172282380D02*
X180023809Y-171282380D01*
X180261904Y-171282380D01*
X180404761Y-171330000D01*
X180500000Y-171425238D01*
X180547619Y-171520476D01*
X180595238Y-171710952D01*
X180595238Y-171853809D01*
X180547619Y-172044285D01*
X180500000Y-172139523D01*
X180404761Y-172234761D01*
X180261904Y-172282380D01*
X180023809Y-172282380D01*
X181452380Y-172282380D02*
X181452380Y-171758571D01*
X181404761Y-171663333D01*
X181309523Y-171615714D01*
X181119047Y-171615714D01*
X181023809Y-171663333D01*
X181452380Y-172234761D02*
X181357142Y-172282380D01*
X181119047Y-172282380D01*
X181023809Y-172234761D01*
X180976190Y-172139523D01*
X180976190Y-172044285D01*
X181023809Y-171949047D01*
X181119047Y-171901428D01*
X181357142Y-171901428D01*
X181452380Y-171853809D01*
X181833333Y-171615714D02*
X182071428Y-172282380D01*
X182309523Y-171615714D01*
X182690476Y-172282380D02*
X182690476Y-171615714D01*
X182690476Y-171282380D02*
X182642857Y-171330000D01*
X182690476Y-171377619D01*
X182738095Y-171330000D01*
X182690476Y-171282380D01*
X182690476Y-171377619D01*
X183595238Y-172282380D02*
X183595238Y-171282380D01*
X183595238Y-172234761D02*
X183500000Y-172282380D01*
X183309523Y-172282380D01*
X183214285Y-172234761D01*
X183166666Y-172187142D01*
X183119047Y-172091904D01*
X183119047Y-171806190D01*
X183166666Y-171710952D01*
X183214285Y-171663333D01*
X183309523Y-171615714D01*
X183500000Y-171615714D01*
X183595238Y-171663333D01*
X184833333Y-172282380D02*
X184833333Y-171282380D01*
X185071428Y-171282380D01*
X185214285Y-171330000D01*
X185309523Y-171425238D01*
X185357142Y-171520476D01*
X185404761Y-171710952D01*
X185404761Y-171853809D01*
X185357142Y-172044285D01*
X185309523Y-172139523D01*
X185214285Y-172234761D01*
X185071428Y-172282380D01*
X184833333Y-172282380D01*
X186261904Y-172282380D02*
X186261904Y-171758571D01*
X186214285Y-171663333D01*
X186119047Y-171615714D01*
X185928571Y-171615714D01*
X185833333Y-171663333D01*
X186261904Y-172234761D02*
X186166666Y-172282380D01*
X185928571Y-172282380D01*
X185833333Y-172234761D01*
X185785714Y-172139523D01*
X185785714Y-172044285D01*
X185833333Y-171949047D01*
X185928571Y-171901428D01*
X186166666Y-171901428D01*
X186261904Y-171853809D01*
X188071428Y-172187142D02*
X188023809Y-172234761D01*
X187880952Y-172282380D01*
X187785714Y-172282380D01*
X187642857Y-172234761D01*
X187547619Y-172139523D01*
X187500000Y-172044285D01*
X187452380Y-171853809D01*
X187452380Y-171710952D01*
X187500000Y-171520476D01*
X187547619Y-171425238D01*
X187642857Y-171330000D01*
X187785714Y-171282380D01*
X187880952Y-171282380D01*
X188023809Y-171330000D01*
X188071428Y-171377619D01*
X188642857Y-172282380D02*
X188547619Y-172234761D01*
X188500000Y-172187142D01*
X188452380Y-172091904D01*
X188452380Y-171806190D01*
X188500000Y-171710952D01*
X188547619Y-171663333D01*
X188642857Y-171615714D01*
X188785714Y-171615714D01*
X188880952Y-171663333D01*
X188928571Y-171710952D01*
X188976190Y-171806190D01*
X188976190Y-172091904D01*
X188928571Y-172187142D01*
X188880952Y-172234761D01*
X188785714Y-172282380D01*
X188642857Y-172282380D01*
X189357142Y-172234761D02*
X189452380Y-172282380D01*
X189642857Y-172282380D01*
X189738095Y-172234761D01*
X189785714Y-172139523D01*
X189785714Y-172091904D01*
X189738095Y-171996666D01*
X189642857Y-171949047D01*
X189500000Y-171949047D01*
X189404761Y-171901428D01*
X189357142Y-171806190D01*
X189357142Y-171758571D01*
X189404761Y-171663333D01*
X189500000Y-171615714D01*
X189642857Y-171615714D01*
X189738095Y-171663333D01*
X190071428Y-171615714D02*
X190452380Y-171615714D01*
X190214285Y-171282380D02*
X190214285Y-172139523D01*
X190261904Y-172234761D01*
X190357142Y-172282380D01*
X190452380Y-172282380D01*
X191214285Y-172282380D02*
X191214285Y-171758571D01*
X191166666Y-171663333D01*
X191071428Y-171615714D01*
X190880952Y-171615714D01*
X190785714Y-171663333D01*
X191214285Y-172234761D02*
X191119047Y-172282380D01*
X190880952Y-172282380D01*
X190785714Y-172234761D01*
X190738095Y-172139523D01*
X190738095Y-172044285D01*
X190785714Y-171949047D01*
X190880952Y-171901428D01*
X191119047Y-171901428D01*
X191214285Y-171853809D01*
X191690476Y-171901428D02*
X192452380Y-171901428D01*
X192928571Y-172282380D02*
X192928571Y-171282380D01*
X193166666Y-171282380D01*
X193309523Y-171330000D01*
X193404761Y-171425238D01*
X193452380Y-171520476D01*
X193500000Y-171710952D01*
X193500000Y-171853809D01*
X193452380Y-172044285D01*
X193404761Y-172139523D01*
X193309523Y-172234761D01*
X193166666Y-172282380D01*
X192928571Y-172282380D01*
X194500000Y-172187142D02*
X194452380Y-172234761D01*
X194309523Y-172282380D01*
X194214285Y-172282380D01*
X194071428Y-172234761D01*
X193976190Y-172139523D01*
X193928571Y-172044285D01*
X193880952Y-171853809D01*
X193880952Y-171710952D01*
X193928571Y-171520476D01*
X193976190Y-171425238D01*
X194071428Y-171330000D01*
X194214285Y-171282380D01*
X194309523Y-171282380D01*
X194452380Y-171330000D01*
X194500000Y-171377619D01*
X194880952Y-172234761D02*
X195023809Y-172282380D01*
X195261904Y-172282380D01*
X195357142Y-172234761D01*
X195404761Y-172187142D01*
X195452380Y-172091904D01*
X195452380Y-171996666D01*
X195404761Y-171901428D01*
X195357142Y-171853809D01*
X195261904Y-171806190D01*
X195071428Y-171758571D01*
X194976190Y-171710952D01*
X194928571Y-171663333D01*
X194880952Y-171568095D01*
X194880952Y-171472857D01*
X194928571Y-171377619D01*
X194976190Y-171330000D01*
X195071428Y-171282380D01*
X195309523Y-171282380D01*
X195452380Y-171330000D01*
X195880952Y-172282380D02*
X195880952Y-171282380D01*
X196119047Y-171282380D01*
X196261904Y-171330000D01*
X196357142Y-171425238D01*
X196404761Y-171520476D01*
X196452380Y-171710952D01*
X196452380Y-171853809D01*
X196404761Y-172044285D01*
X196357142Y-172139523D01*
X196261904Y-172234761D01*
X196119047Y-172282380D01*
X195880952Y-172282380D01*
X196833333Y-171996666D02*
X197309523Y-171996666D01*
X196738095Y-172282380D02*
X197071428Y-171282380D01*
X197404761Y-172282380D01*
X197595238Y-171282380D02*
X197928571Y-172282380D01*
X198261904Y-171282380D01*
X198785714Y-171282380D02*
X198880952Y-171282380D01*
X198976190Y-171330000D01*
X199023809Y-171377619D01*
X199071428Y-171472857D01*
X199119047Y-171663333D01*
X199119047Y-171901428D01*
X199071428Y-172091904D01*
X199023809Y-172187142D01*
X198976190Y-172234761D01*
X198880952Y-172282380D01*
X198785714Y-172282380D01*
X198690476Y-172234761D01*
X198642857Y-172187142D01*
X198595238Y-172091904D01*
X198547619Y-171901428D01*
X198547619Y-171663333D01*
X198595238Y-171472857D01*
X198642857Y-171377619D01*
X198690476Y-171330000D01*
X198785714Y-171282380D01*
X199738095Y-171282380D02*
X199833333Y-171282380D01*
X199928571Y-171330000D01*
X199976190Y-171377619D01*
X200023809Y-171472857D01*
X200071428Y-171663333D01*
X200071428Y-171901428D01*
X200023809Y-172091904D01*
X199976190Y-172187142D01*
X199928571Y-172234761D01*
X199833333Y-172282380D01*
X199738095Y-172282380D01*
X199642857Y-172234761D01*
X199595238Y-172187142D01*
X199547619Y-172091904D01*
X199500000Y-171901428D01*
X199500000Y-171663333D01*
X199547619Y-171472857D01*
X199595238Y-171377619D01*
X199642857Y-171330000D01*
X199738095Y-171282380D01*
X201023809Y-172282380D02*
X200452380Y-172282380D01*
X200738095Y-172282380D02*
X200738095Y-171282380D01*
X200642857Y-171425238D01*
X200547619Y-171520476D01*
X200452380Y-171568095D01*
X188334285Y-188682380D02*
X188905714Y-188682380D01*
X188620000Y-189682380D02*
X188620000Y-188682380D01*
X189620000Y-189634761D02*
X189524761Y-189682380D01*
X189334285Y-189682380D01*
X189239047Y-189634761D01*
X189191428Y-189539523D01*
X189191428Y-189158571D01*
X189239047Y-189063333D01*
X189334285Y-189015714D01*
X189524761Y-189015714D01*
X189620000Y-189063333D01*
X189667619Y-189158571D01*
X189667619Y-189253809D01*
X189191428Y-189349047D01*
X190096190Y-189682380D02*
X190096190Y-189015714D01*
X190096190Y-189110952D02*
X190143809Y-189063333D01*
X190239047Y-189015714D01*
X190381904Y-189015714D01*
X190477142Y-189063333D01*
X190524761Y-189158571D01*
X190524761Y-189682380D01*
X190524761Y-189158571D02*
X190572380Y-189063333D01*
X190667619Y-189015714D01*
X190810476Y-189015714D01*
X190905714Y-189063333D01*
X190953333Y-189158571D01*
X190953333Y-189682380D01*
X191429523Y-189015714D02*
X191429523Y-190015714D01*
X191429523Y-189063333D02*
X191524761Y-189015714D01*
X191715238Y-189015714D01*
X191810476Y-189063333D01*
X191858095Y-189110952D01*
X191905714Y-189206190D01*
X191905714Y-189491904D01*
X191858095Y-189587142D01*
X191810476Y-189634761D01*
X191715238Y-189682380D01*
X191524761Y-189682380D01*
X191429523Y-189634761D01*
X192715238Y-189634761D02*
X192620000Y-189682380D01*
X192429523Y-189682380D01*
X192334285Y-189634761D01*
X192286666Y-189539523D01*
X192286666Y-189158571D01*
X192334285Y-189063333D01*
X192429523Y-189015714D01*
X192620000Y-189015714D01*
X192715238Y-189063333D01*
X192762857Y-189158571D01*
X192762857Y-189253809D01*
X192286666Y-189349047D01*
X193191428Y-189682380D02*
X193191428Y-189015714D01*
X193191428Y-189206190D02*
X193239047Y-189110952D01*
X193286666Y-189063333D01*
X193381904Y-189015714D01*
X193477142Y-189015714D01*
X194239047Y-189682380D02*
X194239047Y-189158571D01*
X194191428Y-189063333D01*
X194096190Y-189015714D01*
X193905714Y-189015714D01*
X193810476Y-189063333D01*
X194239047Y-189634761D02*
X194143809Y-189682380D01*
X193905714Y-189682380D01*
X193810476Y-189634761D01*
X193762857Y-189539523D01*
X193762857Y-189444285D01*
X193810476Y-189349047D01*
X193905714Y-189301428D01*
X194143809Y-189301428D01*
X194239047Y-189253809D01*
X194572380Y-189015714D02*
X194953333Y-189015714D01*
X194715238Y-188682380D02*
X194715238Y-189539523D01*
X194762857Y-189634761D01*
X194858095Y-189682380D01*
X194953333Y-189682380D01*
X195715238Y-189015714D02*
X195715238Y-189682380D01*
X195286666Y-189015714D02*
X195286666Y-189539523D01*
X195334285Y-189634761D01*
X195429523Y-189682380D01*
X195572380Y-189682380D01*
X195667619Y-189634761D01*
X195715238Y-189587142D01*
X196191428Y-189682380D02*
X196191428Y-189015714D01*
X196191428Y-189206190D02*
X196239047Y-189110952D01*
X196286666Y-189063333D01*
X196381904Y-189015714D01*
X196477142Y-189015714D01*
X197191428Y-189634761D02*
X197096190Y-189682380D01*
X196905714Y-189682380D01*
X196810476Y-189634761D01*
X196762857Y-189539523D01*
X196762857Y-189158571D01*
X196810476Y-189063333D01*
X196905714Y-189015714D01*
X197096190Y-189015714D01*
X197191428Y-189063333D01*
X197239047Y-189158571D01*
X197239047Y-189253809D01*
X196762857Y-189349047D01*
X198381904Y-189634761D02*
X198524761Y-189682380D01*
X198762857Y-189682380D01*
X198858095Y-189634761D01*
X198905714Y-189587142D01*
X198953333Y-189491904D01*
X198953333Y-189396666D01*
X198905714Y-189301428D01*
X198858095Y-189253809D01*
X198762857Y-189206190D01*
X198572380Y-189158571D01*
X198477142Y-189110952D01*
X198429523Y-189063333D01*
X198381904Y-188968095D01*
X198381904Y-188872857D01*
X198429523Y-188777619D01*
X198477142Y-188730000D01*
X198572380Y-188682380D01*
X198810476Y-188682380D01*
X198953333Y-188730000D01*
X199762857Y-189634761D02*
X199667619Y-189682380D01*
X199477142Y-189682380D01*
X199381904Y-189634761D01*
X199334285Y-189539523D01*
X199334285Y-189158571D01*
X199381904Y-189063333D01*
X199477142Y-189015714D01*
X199667619Y-189015714D01*
X199762857Y-189063333D01*
X199810476Y-189158571D01*
X199810476Y-189253809D01*
X199334285Y-189349047D01*
X200239047Y-189015714D02*
X200239047Y-189682380D01*
X200239047Y-189110952D02*
X200286666Y-189063333D01*
X200381904Y-189015714D01*
X200524761Y-189015714D01*
X200620000Y-189063333D01*
X200667619Y-189158571D01*
X200667619Y-189682380D01*
X201096190Y-189634761D02*
X201191428Y-189682380D01*
X201381904Y-189682380D01*
X201477142Y-189634761D01*
X201524761Y-189539523D01*
X201524761Y-189491904D01*
X201477142Y-189396666D01*
X201381904Y-189349047D01*
X201239047Y-189349047D01*
X201143809Y-189301428D01*
X201096190Y-189206190D01*
X201096190Y-189158571D01*
X201143809Y-189063333D01*
X201239047Y-189015714D01*
X201381904Y-189015714D01*
X201477142Y-189063333D01*
X202096190Y-189682380D02*
X202000952Y-189634761D01*
X201953333Y-189587142D01*
X201905714Y-189491904D01*
X201905714Y-189206190D01*
X201953333Y-189110952D01*
X202000952Y-189063333D01*
X202096190Y-189015714D01*
X202239047Y-189015714D01*
X202334285Y-189063333D01*
X202381904Y-189110952D01*
X202429523Y-189206190D01*
X202429523Y-189491904D01*
X202381904Y-189587142D01*
X202334285Y-189634761D01*
X202239047Y-189682380D01*
X202096190Y-189682380D01*
X202858095Y-189682380D02*
X202858095Y-189015714D01*
X202858095Y-189206190D02*
X202905714Y-189110952D01*
X202953333Y-189063333D01*
X203048571Y-189015714D01*
X203143809Y-189015714D01*
X204239047Y-189682380D02*
X204239047Y-188682380D01*
X204620000Y-188682380D01*
X204715238Y-188730000D01*
X204762857Y-188777619D01*
X204810476Y-188872857D01*
X204810476Y-189015714D01*
X204762857Y-189110952D01*
X204715238Y-189158571D01*
X204620000Y-189206190D01*
X204239047Y-189206190D01*
X205239047Y-189682380D02*
X205239047Y-189015714D01*
X205239047Y-188682380D02*
X205191428Y-188730000D01*
X205239047Y-188777619D01*
X205286666Y-188730000D01*
X205239047Y-188682380D01*
X205239047Y-188777619D01*
X205715238Y-189682380D02*
X205715238Y-188682380D01*
X205715238Y-189158571D02*
X206286666Y-189158571D01*
X206286666Y-189682380D02*
X206286666Y-188682380D01*
X207191428Y-189682380D02*
X207191428Y-189158571D01*
X207143809Y-189063333D01*
X207048571Y-189015714D01*
X206858095Y-189015714D01*
X206762857Y-189063333D01*
X207191428Y-189634761D02*
X207096190Y-189682380D01*
X206858095Y-189682380D01*
X206762857Y-189634761D01*
X206715238Y-189539523D01*
X206715238Y-189444285D01*
X206762857Y-189349047D01*
X206858095Y-189301428D01*
X207096190Y-189301428D01*
X207191428Y-189253809D01*
X207524761Y-189015714D02*
X207905714Y-189015714D01*
X207667619Y-188682380D02*
X207667619Y-189539523D01*
X207715238Y-189634761D01*
X207810476Y-189682380D01*
X207905714Y-189682380D01*
%TO.C,TMP1*%
D11*
X161060000Y-115296190D02*
X161060000Y-114796190D01*
X161345714Y-115296190D02*
X161131428Y-115010476D01*
X161345714Y-114796190D02*
X161060000Y-115081904D01*
X161750476Y-115272380D02*
X161702857Y-115296190D01*
X161607619Y-115296190D01*
X161560000Y-115272380D01*
X161536190Y-115224761D01*
X161536190Y-115034285D01*
X161560000Y-114986666D01*
X161607619Y-114962857D01*
X161702857Y-114962857D01*
X161750476Y-114986666D01*
X161774285Y-115034285D01*
X161774285Y-115081904D01*
X161536190Y-115129523D01*
X162179047Y-115272380D02*
X162131428Y-115296190D01*
X162036190Y-115296190D01*
X161988571Y-115272380D01*
X161964761Y-115224761D01*
X161964761Y-115034285D01*
X161988571Y-114986666D01*
X162036190Y-114962857D01*
X162131428Y-114962857D01*
X162179047Y-114986666D01*
X162202857Y-115034285D01*
X162202857Y-115081904D01*
X161964761Y-115129523D01*
X162417142Y-114962857D02*
X162417142Y-115462857D01*
X162417142Y-114986666D02*
X162464761Y-114962857D01*
X162560000Y-114962857D01*
X162607619Y-114986666D01*
X162631428Y-115010476D01*
X162655238Y-115058095D01*
X162655238Y-115200952D01*
X162631428Y-115248571D01*
X162607619Y-115272380D01*
X162560000Y-115296190D01*
X162464761Y-115296190D01*
X162417142Y-115272380D01*
X162940952Y-115296190D02*
X162893333Y-115272380D01*
X162869523Y-115248571D01*
X162845714Y-115200952D01*
X162845714Y-115058095D01*
X162869523Y-115010476D01*
X162893333Y-114986666D01*
X162940952Y-114962857D01*
X163012380Y-114962857D01*
X163060000Y-114986666D01*
X163083809Y-115010476D01*
X163107619Y-115058095D01*
X163107619Y-115200952D01*
X163083809Y-115248571D01*
X163060000Y-115272380D01*
X163012380Y-115296190D01*
X162940952Y-115296190D01*
X163536190Y-114962857D02*
X163536190Y-115296190D01*
X163321904Y-114962857D02*
X163321904Y-115224761D01*
X163345714Y-115272380D01*
X163393333Y-115296190D01*
X163464761Y-115296190D01*
X163512380Y-115272380D01*
X163536190Y-115248571D01*
X163702857Y-114962857D02*
X163893333Y-114962857D01*
X163774285Y-114796190D02*
X163774285Y-115224761D01*
X163798095Y-115272380D01*
X163845714Y-115296190D01*
X163893333Y-115296190D01*
X164083809Y-115272380D02*
X164083809Y-115296190D01*
X164060000Y-115343809D01*
X164036190Y-115367619D01*
X164060000Y-114986666D02*
X164083809Y-115010476D01*
X164060000Y-115034285D01*
X164036190Y-115010476D01*
X164060000Y-114986666D01*
X164060000Y-115034285D01*
X160738571Y-116296190D02*
X160738571Y-115796190D01*
X161024285Y-116296190D01*
X161024285Y-115796190D01*
X161333809Y-116296190D02*
X161286190Y-116272380D01*
X161262380Y-116248571D01*
X161238571Y-116200952D01*
X161238571Y-116058095D01*
X161262380Y-116010476D01*
X161286190Y-115986666D01*
X161333809Y-115962857D01*
X161405238Y-115962857D01*
X161452857Y-115986666D01*
X161476666Y-116010476D01*
X161500476Y-116058095D01*
X161500476Y-116200952D01*
X161476666Y-116248571D01*
X161452857Y-116272380D01*
X161405238Y-116296190D01*
X161333809Y-116296190D01*
X162310000Y-116272380D02*
X162262380Y-116296190D01*
X162167142Y-116296190D01*
X162119523Y-116272380D01*
X162095714Y-116248571D01*
X162071904Y-116200952D01*
X162071904Y-116058095D01*
X162095714Y-116010476D01*
X162119523Y-115986666D01*
X162167142Y-115962857D01*
X162262380Y-115962857D01*
X162310000Y-115986666D01*
X162595714Y-116296190D02*
X162548095Y-116272380D01*
X162524285Y-116248571D01*
X162500476Y-116200952D01*
X162500476Y-116058095D01*
X162524285Y-116010476D01*
X162548095Y-115986666D01*
X162595714Y-115962857D01*
X162667142Y-115962857D01*
X162714761Y-115986666D01*
X162738571Y-116010476D01*
X162762380Y-116058095D01*
X162762380Y-116200952D01*
X162738571Y-116248571D01*
X162714761Y-116272380D01*
X162667142Y-116296190D01*
X162595714Y-116296190D01*
X162976666Y-115962857D02*
X162976666Y-116462857D01*
X162976666Y-115986666D02*
X163024285Y-115962857D01*
X163119523Y-115962857D01*
X163167142Y-115986666D01*
X163190952Y-116010476D01*
X163214761Y-116058095D01*
X163214761Y-116200952D01*
X163190952Y-116248571D01*
X163167142Y-116272380D01*
X163119523Y-116296190D01*
X163024285Y-116296190D01*
X162976666Y-116272380D01*
X163429047Y-115962857D02*
X163429047Y-116462857D01*
X163429047Y-115986666D02*
X163476666Y-115962857D01*
X163571904Y-115962857D01*
X163619523Y-115986666D01*
X163643333Y-116010476D01*
X163667142Y-116058095D01*
X163667142Y-116200952D01*
X163643333Y-116248571D01*
X163619523Y-116272380D01*
X163571904Y-116296190D01*
X163476666Y-116296190D01*
X163429047Y-116272380D01*
X164071904Y-116272380D02*
X164024285Y-116296190D01*
X163929047Y-116296190D01*
X163881428Y-116272380D01*
X163857619Y-116224761D01*
X163857619Y-116034285D01*
X163881428Y-115986666D01*
X163929047Y-115962857D01*
X164024285Y-115962857D01*
X164071904Y-115986666D01*
X164095714Y-116034285D01*
X164095714Y-116081904D01*
X163857619Y-116129523D01*
X164310000Y-116296190D02*
X164310000Y-115962857D01*
X164310000Y-116058095D02*
X164333809Y-116010476D01*
X164357619Y-115986666D01*
X164405238Y-115962857D01*
X164452857Y-115962857D01*
%TD*%
M02*
