%TF.GenerationSoftware,KiCad,Pcbnew,(5.1.10)-1*%
%TF.CreationDate,2021-06-04T17:59:31+02:00*%
%TF.ProjectId,_Real_EEE3088Project,5f526561-6c5f-4454-9545-333038385072,rev?*%
%TF.SameCoordinates,Original*%
%TF.FileFunction,Copper,L2,Inr*%
%TF.FilePolarity,Positive*%
%FSLAX46Y46*%
G04 Gerber Fmt 4.6, Leading zero omitted, Abs format (unit mm)*
G04 Created by KiCad (PCBNEW (5.1.10)-1) date 2021-06-04 17:59:31*
%MOMM*%
%LPD*%
G01*
G04 APERTURE LIST*
%TA.AperFunction,ComponentPad*%
%ADD10R,1.800000X1.800000*%
%TD*%
%TA.AperFunction,ComponentPad*%
%ADD11C,1.800000*%
%TD*%
%TA.AperFunction,ComponentPad*%
%ADD12O,2.400000X2.400000*%
%TD*%
%TA.AperFunction,ComponentPad*%
%ADD13R,2.400000X2.400000*%
%TD*%
%TA.AperFunction,ComponentPad*%
%ADD14R,2.000000X2.000000*%
%TD*%
%TA.AperFunction,ComponentPad*%
%ADD15C,2.000000*%
%TD*%
%TA.AperFunction,ComponentPad*%
%ADD16O,2.000000X2.000000*%
%TD*%
%TA.AperFunction,ComponentPad*%
%ADD17R,2.800000X2.800000*%
%TD*%
%TA.AperFunction,ComponentPad*%
%ADD18O,2.800000X2.800000*%
%TD*%
%TA.AperFunction,ComponentPad*%
%ADD19O,1.200000X1.200000*%
%TD*%
%TA.AperFunction,ComponentPad*%
%ADD20O,1.200000X1.600000*%
%TD*%
%TA.AperFunction,ComponentPad*%
%ADD21O,1.400000X1.400000*%
%TD*%
%TA.AperFunction,ComponentPad*%
%ADD22C,1.400000*%
%TD*%
%TA.AperFunction,ViaPad*%
%ADD23C,0.800000*%
%TD*%
G04 APERTURE END LIST*
D10*
%TO.N,Net-(LED3-Pad1)*%
%TO.C,LED3*%
X181610000Y-38100000D03*
D11*
%TO.N,Net-(D3-Pad2)*%
X181610000Y-40640000D03*
%TD*%
D12*
%TO.N,Net-(C3-Pad2)*%
%TO.C,C3*%
X99060000Y-91220000D03*
D13*
%TO.N,Net-(Buck/Boost1-Pad12)*%
X99060000Y-109220000D03*
%TD*%
D14*
%TO.N,Net-(Buck/Boost1-Pad4)*%
%TO.C,L1*%
X71120000Y-109220000D03*
D15*
%TO.N,Net-(Buck/Boost1-Pad6)*%
X71120000Y-129320000D03*
%TO.N,N/C*%
X58620000Y-109220000D03*
X58620000Y-129320000D03*
%TD*%
D14*
%TO.N,Net-(Buck/Boost1-Pad1)*%
%TO.C,C1*%
X78740000Y-149860000D03*
D16*
%TO.N,GND*%
X78740000Y-134860000D03*
%TD*%
D13*
%TO.N,Vin*%
%TO.C,C2*%
X101060001Y-82144999D03*
D12*
%TO.N,GND*%
X101060001Y-64144999D03*
%TD*%
D13*
%TO.N,Net-(Buck/Boost1-Pad7)*%
%TO.C,C4*%
X118110000Y-115570000D03*
D12*
%TO.N,GND*%
X118110000Y-133570000D03*
%TD*%
D13*
%TO.N,Net-(C5-Pad1)*%
%TO.C,C5*%
X74930000Y-73660000D03*
D12*
%TO.N,Net-(Buck/Boost1-Pad12)*%
X92930000Y-73660000D03*
%TD*%
%TO.N,GND*%
%TO.C,C6*%
X100330000Y-129320000D03*
D13*
%TO.N,/Vreg*%
X100330000Y-147320000D03*
%TD*%
D17*
%TO.N,Net-(D1-Pad1)*%
%TO.C,D1*%
X166370000Y-80010000D03*
D18*
%TO.N,Net-(D1-Pad2)*%
X166370000Y-87630000D03*
%TD*%
%TO.N,Net-(D2-Pad2)*%
%TO.C,D2*%
X166370000Y-67310000D03*
D17*
%TO.N,Net-(D2-Pad1)*%
X166370000Y-59690000D03*
%TD*%
%TO.N,Net-(D3-Pad1)*%
%TO.C,D3*%
X166370000Y-35560000D03*
D18*
%TO.N,Net-(D3-Pad2)*%
X166370000Y-43180000D03*
%TD*%
D10*
%TO.N,Net-(LED1-Pad1)*%
%TO.C,LED1*%
X181610000Y-85090000D03*
D11*
%TO.N,Net-(D1-Pad2)*%
X181610000Y-87630000D03*
%TD*%
%TO.N,Net-(D2-Pad2)*%
%TO.C,LED2*%
X181610000Y-67310000D03*
D10*
%TO.N,Net-(LED2-Pad1)*%
X181610000Y-64770000D03*
%TD*%
D19*
%TO.N,GND*%
%TO.C,OP1*%
X153194752Y-77055248D03*
%TO.N,Vin*%
X154050000Y-79120000D03*
%TO.N,Net-(D1-Pad1)*%
X153194752Y-81184752D03*
%TO.N,Net-(OP1-Pad5)*%
X151130000Y-82040000D03*
%TO.N,GND*%
X149065248Y-81184752D03*
%TO.N,Net-(OP1-Pad3)*%
X148210000Y-79120000D03*
%TO.N,Net-(OP1-Pad2)*%
X149065248Y-77055248D03*
D20*
%TO.N,GND*%
X151130000Y-76200000D03*
%TD*%
%TO.N,GND*%
%TO.C,OP2*%
X151130000Y-58420000D03*
D19*
%TO.N,Net-(OP2-Pad2)*%
X149065248Y-59275248D03*
%TO.N,Net-(OP1-Pad3)*%
X148210000Y-61340000D03*
%TO.N,GND*%
X149065248Y-63404752D03*
%TO.N,Net-(OP2-Pad5)*%
X151130000Y-64260000D03*
%TO.N,Net-(D2-Pad1)*%
X153194752Y-63404752D03*
%TO.N,Vin*%
X154050000Y-61340000D03*
%TO.N,GND*%
X153194752Y-59275248D03*
%TD*%
D20*
%TO.N,GND*%
%TO.C,OP3*%
X151130000Y-34290000D03*
D19*
%TO.N,Net-(OP3-Pad2)*%
X149065248Y-35145248D03*
%TO.N,Net-(OP1-Pad3)*%
X148210000Y-37210000D03*
%TO.N,GND*%
X149065248Y-39274752D03*
%TO.N,Net-(OP3-Pad5)*%
X151130000Y-40130000D03*
%TO.N,Net-(D3-Pad1)*%
X153194752Y-39274752D03*
%TO.N,Vin*%
X154050000Y-37210000D03*
%TO.N,GND*%
X153194752Y-35145248D03*
%TD*%
D21*
%TO.N,Net-(Buck/Boost1-Pad1)*%
%TO.C,R1*%
X89540000Y-148590000D03*
D22*
%TO.N,Vin*%
X91440000Y-148590000D03*
%TD*%
%TO.N,Net-(Buck/Boost1-Pad2)*%
%TO.C,R2*%
X76200000Y-110490000D03*
D21*
%TO.N,GND*%
X76200000Y-112390000D03*
%TD*%
D22*
%TO.N,/Vreg*%
%TO.C,R3*%
X154940000Y-110490000D03*
D21*
%TO.N,Net-(R3-Pad2)*%
X154940000Y-112390000D03*
%TD*%
D22*
%TO.N,Net-(Buck/Boost1-Pad7)*%
%TO.C,R4*%
X101600000Y-120650000D03*
D21*
%TO.N,GND*%
X101600000Y-125730000D03*
%TD*%
D22*
%TO.N,Net-(C3-Pad2)*%
%TO.C,R5*%
X93980000Y-104140000D03*
D21*
%TO.N,Net-(Buck/Boost1-Pad11)*%
X93980000Y-109220000D03*
%TD*%
D22*
%TO.N,/Vreg*%
%TO.C,R6*%
X128985001Y-98944999D03*
D21*
%TO.N,Net-(Buck/Boost1-Pad12)*%
X128985001Y-104024999D03*
%TD*%
%TO.N,GND*%
%TO.C,R7*%
X109055001Y-69534999D03*
D22*
%TO.N,Net-(Buck/Boost1-Pad12)*%
X109055001Y-74614999D03*
%TD*%
D21*
%TO.N,/Vtemp*%
%TO.C,R8*%
X132745001Y-63924999D03*
D22*
%TO.N,Net-(OP1-Pad3)*%
X132745001Y-65824999D03*
%TD*%
D21*
%TO.N,Net-(C5-Pad1)*%
%TO.C,R9*%
X78740000Y-88270000D03*
D22*
%TO.N,/Vreg*%
X78740000Y-90170000D03*
%TD*%
D21*
%TO.N,GND*%
%TO.C,R10*%
X194310000Y-74300000D03*
D22*
%TO.N,Net-(LED1-Pad1)*%
X194310000Y-76200000D03*
%TD*%
%TO.N,/Vreg*%
%TO.C,R11*%
X154940000Y-92710000D03*
D21*
%TO.N,Net-(OP1-Pad2)*%
X154940000Y-90810000D03*
%TD*%
%TO.N,GND*%
%TO.C,R12*%
X147320000Y-144780000D03*
D22*
%TO.N,Net-(OP1-Pad2)*%
X147320000Y-139700000D03*
%TD*%
D21*
%TO.N,GND*%
%TO.C,R13*%
X186690000Y-59690000D03*
D22*
%TO.N,Net-(LED2-Pad1)*%
X186690000Y-64770000D03*
%TD*%
%TO.N,/Vreg*%
%TO.C,R14*%
X139700000Y-50800000D03*
D21*
%TO.N,Net-(OP2-Pad2)*%
X139700000Y-55880000D03*
%TD*%
%TO.N,GND*%
%TO.C,R15*%
X144780000Y-46990000D03*
D22*
%TO.N,Net-(OP2-Pad2)*%
X144780000Y-52070000D03*
%TD*%
%TO.N,Net-(LED3-Pad1)*%
%TO.C,R16*%
X186690000Y-53340000D03*
D21*
%TO.N,GND*%
X184790000Y-53340000D03*
%TD*%
D22*
%TO.N,/Vreg*%
%TO.C,R17*%
X139700000Y-43180000D03*
D21*
%TO.N,Net-(OP3-Pad2)*%
X139700000Y-41280000D03*
%TD*%
%TO.N,GND*%
%TO.C,R18*%
X147320000Y-24130000D03*
D22*
%TO.N,Net-(OP3-Pad2)*%
X147320000Y-26030000D03*
%TD*%
D23*
%TO.N,Net-(Buck/Boost1-Pad2)*%
X93980000Y-124460000D03*
%TO.N,GND*%
X96775001Y-114044999D03*
%TO.N,Net-(Buck/Boost1-Pad4)*%
X93980000Y-120175000D03*
%TO.N,Net-(Buck/Boost1-Pad6)*%
X92710000Y-119399999D03*
%TO.N,Vin*%
X90170000Y-92710000D03*
X81280000Y-119380000D03*
X77470000Y-105410000D03*
%TO.N,Net-(Buck/Boost1-Pad11)*%
X85090000Y-120650000D03*
%TO.N,Net-(Buck/Boost1-Pad12)*%
X83820000Y-121920000D03*
%TO.N,Net-(OP1-Pad2)*%
X153670000Y-133350000D03*
%TO.N,Net-(OP1-Pad3)*%
X147320000Y-52070000D03*
%TD*%
M02*
