%TF.GenerationSoftware,KiCad,Pcbnew,(5.1.10)-1*%
%TF.CreationDate,2021-06-04T17:59:31+02:00*%
%TF.ProjectId,_Real_EEE3088Project,5f526561-6c5f-4454-9545-333038385072,rev?*%
%TF.SameCoordinates,Original*%
%TF.FileFunction,Copper,L1,Top*%
%TF.FilePolarity,Positive*%
%FSLAX46Y46*%
G04 Gerber Fmt 4.6, Leading zero omitted, Abs format (unit mm)*
G04 Created by KiCad (PCBNEW (5.1.10)-1) date 2021-06-04 17:59:31*
%MOMM*%
%LPD*%
G01*
G04 APERTURE LIST*
%TA.AperFunction,ComponentPad*%
%ADD10R,1.800000X1.800000*%
%TD*%
%TA.AperFunction,ComponentPad*%
%ADD11C,1.800000*%
%TD*%
%TA.AperFunction,ComponentPad*%
%ADD12O,2.400000X2.400000*%
%TD*%
%TA.AperFunction,ComponentPad*%
%ADD13R,2.400000X2.400000*%
%TD*%
%TA.AperFunction,ComponentPad*%
%ADD14R,2.000000X2.000000*%
%TD*%
%TA.AperFunction,ComponentPad*%
%ADD15C,2.000000*%
%TD*%
%TA.AperFunction,SMDPad,CuDef*%
%ADD16R,1.700000X3.300000*%
%TD*%
%TA.AperFunction,SMDPad,CuDef*%
%ADD17R,0.700000X0.250000*%
%TD*%
%TA.AperFunction,ComponentPad*%
%ADD18O,2.000000X2.000000*%
%TD*%
%TA.AperFunction,ComponentPad*%
%ADD19R,2.800000X2.800000*%
%TD*%
%TA.AperFunction,ComponentPad*%
%ADD20O,2.800000X2.800000*%
%TD*%
%TA.AperFunction,ComponentPad*%
%ADD21O,1.200000X1.200000*%
%TD*%
%TA.AperFunction,ComponentPad*%
%ADD22O,1.200000X1.600000*%
%TD*%
%TA.AperFunction,ComponentPad*%
%ADD23O,1.400000X1.400000*%
%TD*%
%TA.AperFunction,ComponentPad*%
%ADD24C,1.400000*%
%TD*%
%TA.AperFunction,SMDPad,CuDef*%
%ADD25R,0.800000X1.800000*%
%TD*%
%TA.AperFunction,ViaPad*%
%ADD26C,0.800000*%
%TD*%
%TA.AperFunction,Conductor*%
%ADD27C,0.250000*%
%TD*%
G04 APERTURE END LIST*
D10*
%TO.P,LED3,1*%
%TO.N,Net-(LED3-Pad1)*%
X181610000Y-38100000D03*
D11*
%TO.P,LED3,2*%
%TO.N,Net-(D3-Pad2)*%
X181610000Y-40640000D03*
%TD*%
D12*
%TO.P,C3,2*%
%TO.N,Net-(C3-Pad2)*%
X99060000Y-91220000D03*
D13*
%TO.P,C3,1*%
%TO.N,Net-(Buck/Boost1-Pad12)*%
X99060000Y-109220000D03*
%TD*%
D14*
%TO.P,L1,1*%
%TO.N,Net-(Buck/Boost1-Pad4)*%
X71120000Y-109220000D03*
D15*
%TO.P,L1,2*%
%TO.N,Net-(Buck/Boost1-Pad6)*%
X71120000Y-129320000D03*
%TO.P,L1,3*%
%TO.N,N/C*%
X58620000Y-109220000D03*
%TO.P,L1,4*%
X58620000Y-129320000D03*
%TD*%
D16*
%TO.P,Buck/Boost1,13*%
%TO.N,GND*%
X88900000Y-120650000D03*
D17*
%TO.P,Buck/Boost1,12*%
%TO.N,Net-(Buck/Boost1-Pad12)*%
X87450000Y-121900000D03*
%TO.P,Buck/Boost1,11*%
%TO.N,Net-(Buck/Boost1-Pad11)*%
X87450000Y-121400000D03*
%TO.P,Buck/Boost1,10*%
%TO.N,GND*%
X87450000Y-120900000D03*
%TO.P,Buck/Boost1,9*%
%TO.N,Vin*%
X87450000Y-120400000D03*
%TO.P,Buck/Boost1,8*%
%TO.N,/Vreg*%
X87450000Y-119900000D03*
%TO.P,Buck/Boost1,7*%
%TO.N,Net-(Buck/Boost1-Pad7)*%
X87450000Y-119400000D03*
%TO.P,Buck/Boost1,6*%
%TO.N,Net-(Buck/Boost1-Pad6)*%
X90350000Y-119400000D03*
%TO.P,Buck/Boost1,5*%
%TO.N,GND*%
X90350000Y-119900000D03*
%TO.P,Buck/Boost1,4*%
%TO.N,Net-(Buck/Boost1-Pad4)*%
X90350000Y-120400000D03*
%TO.P,Buck/Boost1,3*%
%TO.N,GND*%
X90350000Y-120900000D03*
%TO.P,Buck/Boost1,2*%
%TO.N,Net-(Buck/Boost1-Pad2)*%
X90350000Y-121400000D03*
%TO.P,Buck/Boost1,1*%
%TO.N,Net-(Buck/Boost1-Pad1)*%
X90350000Y-121900000D03*
%TD*%
D14*
%TO.P,C1,1*%
%TO.N,Net-(Buck/Boost1-Pad1)*%
X78740000Y-149860000D03*
D18*
%TO.P,C1,2*%
%TO.N,GND*%
X78740000Y-134860000D03*
%TD*%
D13*
%TO.P,C2,1*%
%TO.N,Vin*%
X101060001Y-82144999D03*
D12*
%TO.P,C2,2*%
%TO.N,GND*%
X101060001Y-64144999D03*
%TD*%
D13*
%TO.P,C4,1*%
%TO.N,Net-(Buck/Boost1-Pad7)*%
X118110000Y-115570000D03*
D12*
%TO.P,C4,2*%
%TO.N,GND*%
X118110000Y-133570000D03*
%TD*%
D13*
%TO.P,C5,1*%
%TO.N,Net-(C5-Pad1)*%
X74930000Y-73660000D03*
D12*
%TO.P,C5,2*%
%TO.N,Net-(Buck/Boost1-Pad12)*%
X92930000Y-73660000D03*
%TD*%
%TO.P,C6,2*%
%TO.N,GND*%
X100330000Y-129320000D03*
D13*
%TO.P,C6,1*%
%TO.N,/Vreg*%
X100330000Y-147320000D03*
%TD*%
D19*
%TO.P,D1,1*%
%TO.N,Net-(D1-Pad1)*%
X166370000Y-80010000D03*
D20*
%TO.P,D1,2*%
%TO.N,Net-(D1-Pad2)*%
X166370000Y-87630000D03*
%TD*%
%TO.P,D2,2*%
%TO.N,Net-(D2-Pad2)*%
X166370000Y-67310000D03*
D19*
%TO.P,D2,1*%
%TO.N,Net-(D2-Pad1)*%
X166370000Y-59690000D03*
%TD*%
%TO.P,D3,1*%
%TO.N,Net-(D3-Pad1)*%
X166370000Y-35560000D03*
D20*
%TO.P,D3,2*%
%TO.N,Net-(D3-Pad2)*%
X166370000Y-43180000D03*
%TD*%
D10*
%TO.P,LED1,1*%
%TO.N,Net-(LED1-Pad1)*%
X181610000Y-85090000D03*
D11*
%TO.P,LED1,2*%
%TO.N,Net-(D1-Pad2)*%
X181610000Y-87630000D03*
%TD*%
%TO.P,LED2,2*%
%TO.N,Net-(D2-Pad2)*%
X181610000Y-67310000D03*
D10*
%TO.P,LED2,1*%
%TO.N,Net-(LED2-Pad1)*%
X181610000Y-64770000D03*
%TD*%
D21*
%TO.P,OP1,8*%
%TO.N,GND*%
X153194752Y-77055248D03*
%TO.P,OP1,7*%
%TO.N,Vin*%
X154050000Y-79120000D03*
%TO.P,OP1,6*%
%TO.N,Net-(D1-Pad1)*%
X153194752Y-81184752D03*
%TO.P,OP1,5*%
%TO.N,Net-(OP1-Pad5)*%
X151130000Y-82040000D03*
%TO.P,OP1,4*%
%TO.N,GND*%
X149065248Y-81184752D03*
%TO.P,OP1,3*%
%TO.N,Net-(OP1-Pad3)*%
X148210000Y-79120000D03*
%TO.P,OP1,2*%
%TO.N,Net-(OP1-Pad2)*%
X149065248Y-77055248D03*
D22*
%TO.P,OP1,1*%
%TO.N,GND*%
X151130000Y-76200000D03*
%TD*%
%TO.P,OP2,1*%
%TO.N,GND*%
X151130000Y-58420000D03*
D21*
%TO.P,OP2,2*%
%TO.N,Net-(OP2-Pad2)*%
X149065248Y-59275248D03*
%TO.P,OP2,3*%
%TO.N,Net-(OP1-Pad3)*%
X148210000Y-61340000D03*
%TO.P,OP2,4*%
%TO.N,GND*%
X149065248Y-63404752D03*
%TO.P,OP2,5*%
%TO.N,Net-(OP2-Pad5)*%
X151130000Y-64260000D03*
%TO.P,OP2,6*%
%TO.N,Net-(D2-Pad1)*%
X153194752Y-63404752D03*
%TO.P,OP2,7*%
%TO.N,Vin*%
X154050000Y-61340000D03*
%TO.P,OP2,8*%
%TO.N,GND*%
X153194752Y-59275248D03*
%TD*%
D22*
%TO.P,OP3,1*%
%TO.N,GND*%
X151130000Y-34290000D03*
D21*
%TO.P,OP3,2*%
%TO.N,Net-(OP3-Pad2)*%
X149065248Y-35145248D03*
%TO.P,OP3,3*%
%TO.N,Net-(OP1-Pad3)*%
X148210000Y-37210000D03*
%TO.P,OP3,4*%
%TO.N,GND*%
X149065248Y-39274752D03*
%TO.P,OP3,5*%
%TO.N,Net-(OP3-Pad5)*%
X151130000Y-40130000D03*
%TO.P,OP3,6*%
%TO.N,Net-(D3-Pad1)*%
X153194752Y-39274752D03*
%TO.P,OP3,7*%
%TO.N,Vin*%
X154050000Y-37210000D03*
%TO.P,OP3,8*%
%TO.N,GND*%
X153194752Y-35145248D03*
%TD*%
D23*
%TO.P,R1,2*%
%TO.N,Net-(Buck/Boost1-Pad1)*%
X89540000Y-148590000D03*
D24*
%TO.P,R1,1*%
%TO.N,Vin*%
X91440000Y-148590000D03*
%TD*%
%TO.P,R2,1*%
%TO.N,Net-(Buck/Boost1-Pad2)*%
X76200000Y-110490000D03*
D23*
%TO.P,R2,2*%
%TO.N,GND*%
X76200000Y-112390000D03*
%TD*%
D24*
%TO.P,R3,1*%
%TO.N,/Vreg*%
X154940000Y-110490000D03*
D23*
%TO.P,R3,2*%
%TO.N,Net-(R3-Pad2)*%
X154940000Y-112390000D03*
%TD*%
D24*
%TO.P,R4,1*%
%TO.N,Net-(Buck/Boost1-Pad7)*%
X101600000Y-120650000D03*
D23*
%TO.P,R4,2*%
%TO.N,GND*%
X101600000Y-125730000D03*
%TD*%
D24*
%TO.P,R5,1*%
%TO.N,Net-(C3-Pad2)*%
X93980000Y-104140000D03*
D23*
%TO.P,R5,2*%
%TO.N,Net-(Buck/Boost1-Pad11)*%
X93980000Y-109220000D03*
%TD*%
D24*
%TO.P,R6,1*%
%TO.N,/Vreg*%
X128985001Y-98944999D03*
D23*
%TO.P,R6,2*%
%TO.N,Net-(Buck/Boost1-Pad12)*%
X128985001Y-104024999D03*
%TD*%
%TO.P,R7,2*%
%TO.N,GND*%
X109055001Y-69534999D03*
D24*
%TO.P,R7,1*%
%TO.N,Net-(Buck/Boost1-Pad12)*%
X109055001Y-74614999D03*
%TD*%
D23*
%TO.P,R8,2*%
%TO.N,/Vtemp*%
X132745001Y-63924999D03*
D24*
%TO.P,R8,1*%
%TO.N,Net-(OP1-Pad3)*%
X132745001Y-65824999D03*
%TD*%
D23*
%TO.P,R9,2*%
%TO.N,Net-(C5-Pad1)*%
X78740000Y-88270000D03*
D24*
%TO.P,R9,1*%
%TO.N,/Vreg*%
X78740000Y-90170000D03*
%TD*%
D23*
%TO.P,R10,2*%
%TO.N,GND*%
X194310000Y-74300000D03*
D24*
%TO.P,R10,1*%
%TO.N,Net-(LED1-Pad1)*%
X194310000Y-76200000D03*
%TD*%
%TO.P,R11,1*%
%TO.N,/Vreg*%
X154940000Y-92710000D03*
D23*
%TO.P,R11,2*%
%TO.N,Net-(OP1-Pad2)*%
X154940000Y-90810000D03*
%TD*%
%TO.P,R12,2*%
%TO.N,GND*%
X147320000Y-144780000D03*
D24*
%TO.P,R12,1*%
%TO.N,Net-(OP1-Pad2)*%
X147320000Y-139700000D03*
%TD*%
D23*
%TO.P,R13,2*%
%TO.N,GND*%
X186690000Y-59690000D03*
D24*
%TO.P,R13,1*%
%TO.N,Net-(LED2-Pad1)*%
X186690000Y-64770000D03*
%TD*%
%TO.P,R14,1*%
%TO.N,/Vreg*%
X139700000Y-50800000D03*
D23*
%TO.P,R14,2*%
%TO.N,Net-(OP2-Pad2)*%
X139700000Y-55880000D03*
%TD*%
%TO.P,R15,2*%
%TO.N,GND*%
X144780000Y-46990000D03*
D24*
%TO.P,R15,1*%
%TO.N,Net-(OP2-Pad2)*%
X144780000Y-52070000D03*
%TD*%
%TO.P,R16,1*%
%TO.N,Net-(LED3-Pad1)*%
X186690000Y-53340000D03*
D23*
%TO.P,R16,2*%
%TO.N,GND*%
X184790000Y-53340000D03*
%TD*%
D24*
%TO.P,R17,1*%
%TO.N,/Vreg*%
X139700000Y-43180000D03*
D23*
%TO.P,R17,2*%
%TO.N,Net-(OP3-Pad2)*%
X139700000Y-41280000D03*
%TD*%
%TO.P,R18,2*%
%TO.N,GND*%
X147320000Y-24130000D03*
D24*
%TO.P,R18,1*%
%TO.N,Net-(OP3-Pad2)*%
X147320000Y-26030000D03*
%TD*%
D25*
%TO.P,TMP1,1*%
%TO.N,Net-(R3-Pad2)*%
X164465000Y-112930000D03*
%TO.P,TMP1,2*%
%TO.N,N/C*%
X163195000Y-112930000D03*
%TO.P,TMP1,3*%
%TO.N,GND*%
X161925000Y-112930000D03*
%TO.P,TMP1,4*%
%TO.N,N/C*%
X160655000Y-112930000D03*
%TO.P,TMP1,5*%
X160655000Y-118210000D03*
%TO.P,TMP1,6*%
X161925000Y-118210000D03*
%TO.P,TMP1,7*%
X163195000Y-118210000D03*
%TO.P,TMP1,8*%
X164465000Y-118210000D03*
%TD*%
D26*
%TO.N,Net-(Buck/Boost1-Pad2)*%
X93980000Y-124460000D03*
%TO.N,GND*%
X96775001Y-114044999D03*
%TO.N,Net-(Buck/Boost1-Pad4)*%
X93980000Y-120175000D03*
%TO.N,Net-(Buck/Boost1-Pad6)*%
X92710000Y-119399999D03*
%TO.N,Vin*%
X90170000Y-92710000D03*
X81280000Y-119380000D03*
X77470000Y-105410000D03*
%TO.N,Net-(Buck/Boost1-Pad11)*%
X85090000Y-120650000D03*
%TO.N,Net-(Buck/Boost1-Pad12)*%
X83820000Y-121920000D03*
%TO.N,Net-(OP1-Pad2)*%
X153670000Y-133350000D03*
%TO.N,Net-(OP1-Pad3)*%
X147320000Y-52070000D03*
%TD*%
D27*
%TO.N,*%
X182835001Y-87041999D02*
X182835001Y-88218001D01*
X154975001Y-60995001D02*
X180384999Y-86404999D01*
X154975001Y-30267999D02*
X154975001Y-60995001D01*
X147812001Y-23104999D02*
X154975001Y-30267999D01*
X180384999Y-86404999D02*
X182198001Y-86404999D01*
X146827999Y-23104999D02*
X147812001Y-23104999D01*
X182835001Y-88218001D02*
X181268003Y-89784999D01*
X182198001Y-86404999D02*
X182835001Y-87041999D01*
X138430000Y-31502998D02*
X146827999Y-23104999D01*
X138430000Y-50800000D02*
X138430000Y-31502998D01*
X69850000Y-100330000D02*
X69850000Y-100070020D01*
%TO.N,Net-(Buck/Boost1-Pad1)*%
X88270000Y-149860000D02*
X89540000Y-148590000D01*
X78740000Y-149860000D02*
X88270000Y-149860000D01*
X91025001Y-147104999D02*
X91025001Y-122775001D01*
X89540000Y-148590000D02*
X91025001Y-147104999D01*
X91025001Y-122775001D02*
X90170000Y-121920000D01*
X90190000Y-121900000D02*
X90350000Y-121900000D01*
X90170000Y-121920000D02*
X90190000Y-121900000D01*
%TO.N,Net-(Buck/Boost1-Pad2)*%
X77225001Y-111515001D02*
X76200000Y-110490000D01*
X90950000Y-121400000D02*
X93980000Y-124430000D01*
X90350000Y-121400000D02*
X90950000Y-121400000D01*
X93980000Y-124460000D02*
X93980000Y-124430000D01*
%TO.N,GND*%
X69859999Y-107894999D02*
X69794999Y-107959999D01*
X72380001Y-107894999D02*
X69859999Y-107894999D01*
X72445001Y-107959999D02*
X72380001Y-107894999D01*
X72445001Y-108635001D02*
X72445001Y-107959999D01*
X106450001Y-69534999D02*
X101060001Y-64144999D01*
X109055001Y-69534999D02*
X106450001Y-69534999D01*
X142935001Y-69534999D02*
X149065248Y-63404752D01*
X109055001Y-69534999D02*
X142935001Y-69534999D01*
X147320000Y-24512998D02*
X147320000Y-24130000D01*
X151130000Y-28322998D02*
X147320000Y-24512998D01*
X151130000Y-34290000D02*
X151130000Y-28322998D01*
X151985248Y-35145248D02*
X151130000Y-34290000D01*
X153194752Y-35145248D02*
X151985248Y-35145248D01*
X149065248Y-42704752D02*
X144780000Y-46990000D01*
X149065248Y-39274752D02*
X149065248Y-42704752D01*
X149065248Y-39274752D02*
X153194752Y-35145248D01*
X151130000Y-53340000D02*
X144780000Y-46990000D01*
X151130000Y-58420000D02*
X151130000Y-53340000D01*
X100330000Y-127000000D02*
X101600000Y-125730000D01*
X100330000Y-129320000D02*
X100330000Y-127000000D01*
X110270000Y-125730000D02*
X118110000Y-133570000D01*
X101600000Y-125730000D02*
X110270000Y-125730000D01*
X136110000Y-133570000D02*
X147320000Y-144780000D01*
X142435000Y-133570000D02*
X135670000Y-133570000D01*
X161925000Y-114080000D02*
X142435000Y-133570000D01*
X135670000Y-133570000D02*
X136110000Y-133570000D01*
X118110000Y-133570000D02*
X135670000Y-133570000D01*
X149065248Y-108032250D02*
X149065248Y-81184752D01*
X155187999Y-114155001D02*
X149065248Y-108032250D01*
X161849999Y-114155001D02*
X155187999Y-114155001D01*
X161925000Y-114080000D02*
X161849999Y-114155001D01*
X161925000Y-112930000D02*
X161925000Y-114080000D01*
X151130000Y-79120000D02*
X151130000Y-76200000D01*
X149065248Y-81184752D02*
X151130000Y-79120000D01*
X185664999Y-65654999D02*
X194310000Y-74300000D01*
X185664999Y-60715001D02*
X185664999Y-65654999D01*
X186690000Y-59690000D02*
X185664999Y-60715001D01*
X68894981Y-125014981D02*
X68894981Y-76710017D01*
X78740000Y-134860000D02*
X68894981Y-125014981D01*
X94230000Y-120900000D02*
X90350000Y-120900000D01*
X100330000Y-127000000D02*
X94230000Y-120900000D01*
X89650000Y-119900000D02*
X88900000Y-120650000D01*
X90350000Y-119900000D02*
X89650000Y-119900000D01*
X88650000Y-120900000D02*
X87450000Y-120900000D01*
X88900000Y-120650000D02*
X88650000Y-120900000D01*
X99913002Y-129320000D02*
X100330000Y-129320000D01*
X91493002Y-120900000D02*
X99913002Y-129320000D01*
X87450000Y-120900000D02*
X91493002Y-120900000D01*
X77675010Y-111904939D02*
X77189949Y-112390000D01*
X77675010Y-110448008D02*
X77675010Y-111904939D01*
X73469999Y-72134999D02*
X68894981Y-76710017D01*
X77189949Y-112390000D02*
X76200000Y-112390000D01*
X68894981Y-101667979D02*
X77675010Y-110448008D01*
X142698609Y-106741605D02*
X108092003Y-72134999D01*
X108092003Y-72134999D02*
X73469999Y-72134999D01*
X142698609Y-133306391D02*
X142698609Y-106741605D01*
X142435001Y-133569999D02*
X142698609Y-133306391D01*
X110278602Y-133569999D02*
X142435001Y-133569999D01*
X68894981Y-76710017D02*
X68894981Y-101667979D01*
X97608603Y-120900000D02*
X110278602Y-133569999D01*
X87450000Y-120900000D02*
X97608603Y-120900000D01*
X119570001Y-114044999D02*
X96775001Y-114044999D01*
X119635001Y-114109999D02*
X119570001Y-114044999D01*
X119635001Y-117030001D02*
X119635001Y-114109999D01*
X119570001Y-117095001D02*
X119635001Y-117030001D01*
X126860021Y-117095001D02*
X119570001Y-117095001D01*
X142698609Y-132933589D02*
X126860021Y-117095001D01*
X142698609Y-133306391D02*
X142698609Y-132933589D01*
X184790000Y-57790000D02*
X186690000Y-59690000D01*
X184790000Y-53340000D02*
X184790000Y-57790000D01*
X149990249Y-26800249D02*
X147320000Y-24130000D01*
X149990249Y-35589249D02*
X149990249Y-26800249D01*
X149509249Y-36070249D02*
X149990249Y-35589249D01*
X147671265Y-36070249D02*
X149509249Y-36070249D01*
X140192001Y-51825001D02*
X140725001Y-51292001D01*
X138818591Y-51825001D02*
X140192001Y-51825001D01*
X140725001Y-43016513D02*
X147671265Y-36070249D01*
X137979990Y-50986400D02*
X138818591Y-51825001D01*
X146641598Y-22654990D02*
X137979990Y-31316598D01*
X137979990Y-31316598D02*
X137979990Y-50986400D01*
X157486402Y-22654990D02*
X146641598Y-22654990D01*
X140725001Y-51292001D02*
X140725001Y-43016513D01*
X168545010Y-33713598D02*
X157486402Y-22654990D01*
X168545011Y-37095011D02*
X168545010Y-33713598D01*
X184790000Y-53340000D02*
X168545011Y-37095011D01*
%TO.N,Net-(Buck/Boost1-Pad4)*%
X71120000Y-110250000D02*
X71120000Y-109220000D01*
X93755000Y-120400000D02*
X93980000Y-120175000D01*
X90350000Y-120400000D02*
X93755000Y-120400000D01*
%TO.N,Net-(Buck/Boost1-Pad6)*%
X71120000Y-129540000D02*
X71120000Y-129320000D01*
%TO.N,Net-(Buck/Boost1-Pad7)*%
X106680000Y-115570000D02*
X101600000Y-120650000D01*
X118110000Y-115570000D02*
X106680000Y-115570000D01*
X87789999Y-118674999D02*
X87630000Y-118834998D01*
X99624999Y-118674999D02*
X101600000Y-120650000D01*
X87789999Y-118674999D02*
X99624999Y-118674999D01*
X87630000Y-119220000D02*
X87450000Y-119400000D01*
X87630000Y-118834998D02*
X87630000Y-119220000D01*
%TO.N,/Vreg*%
X78740000Y-90170000D02*
X69344990Y-99565010D01*
X139700000Y-50800000D02*
X139700000Y-43180000D01*
X154940000Y-93284991D02*
X154634399Y-93284991D01*
X154940000Y-92710000D02*
X154940000Y-93284991D01*
X165190001Y-111769999D02*
X163910002Y-110490000D01*
X163910002Y-110490000D02*
X154940000Y-110490000D01*
X165190001Y-128427001D02*
X165190001Y-111769999D01*
X146297002Y-147320000D02*
X165190001Y-128427001D01*
X100330000Y-147320000D02*
X146297002Y-147320000D01*
X128985001Y-98944999D02*
X128385001Y-98944999D01*
X79215001Y-89694999D02*
X78740000Y-90170000D01*
X119735001Y-89694999D02*
X79215001Y-89694999D01*
X128985001Y-98944999D02*
X119735001Y-89694999D01*
X86511391Y-119424981D02*
X86986410Y-119900000D01*
X86986410Y-119900000D02*
X87450000Y-119900000D01*
X86511390Y-117627800D02*
X86511391Y-119424981D01*
X69344990Y-100461400D02*
X86511390Y-117627800D01*
X69344990Y-99565010D02*
X69344990Y-100461400D01*
%TO.N,Vin*%
X77479999Y-151185001D02*
X77414999Y-151120001D01*
X88844999Y-151185001D02*
X77479999Y-151185001D01*
X91440000Y-148590000D02*
X88844999Y-151185001D01*
X77414999Y-151120001D02*
X77414999Y-138146003D01*
X77414999Y-138146003D02*
X84675001Y-130886001D01*
X86324990Y-96555010D02*
X90170000Y-92710000D01*
X86850000Y-120400000D02*
X86324990Y-119874990D01*
X87450000Y-120400000D02*
X86850000Y-120400000D01*
X86324990Y-119874990D02*
X81774990Y-119874990D01*
X81774990Y-119874990D02*
X81280000Y-119380000D01*
X77470000Y-105410000D02*
X90170000Y-92710000D01*
X84675001Y-130886001D02*
X83896001Y-130886001D01*
X81280000Y-128270000D02*
X81280000Y-119380000D01*
X83896001Y-130886001D02*
X81280000Y-128270000D01*
%TO.N,Net-(Buck/Boost1-Pad11)*%
X85774991Y-121334991D02*
X85774992Y-121334992D01*
X85774991Y-121334991D02*
X85090000Y-120650000D01*
X86961399Y-121334991D02*
X85774991Y-121334991D01*
X87026408Y-121400000D02*
X86961399Y-121334991D01*
X87450000Y-121400000D02*
X87026408Y-121400000D01*
%TO.N,Net-(Buck/Boost1-Pad12)*%
X108100002Y-73660000D02*
X109055001Y-74614999D01*
X92930000Y-73660000D02*
X108100002Y-73660000D01*
X109735001Y-74614999D02*
X109055001Y-74614999D01*
X86774999Y-121785001D02*
X86909998Y-121920000D01*
X120227002Y-109220000D02*
X99060000Y-109220000D01*
X130010002Y-94890000D02*
X130010002Y-99437000D01*
X128685001Y-93564999D02*
X130010002Y-94890000D01*
X128985001Y-93864999D02*
X128685001Y-93564999D01*
X130010002Y-99437000D02*
X120227002Y-109220000D01*
X128685001Y-93564999D02*
X109735001Y-74614999D01*
X86774999Y-121785001D02*
X83685001Y-121785001D01*
X83685001Y-121785001D02*
X83820000Y-121920000D01*
X86929998Y-121900000D02*
X86909998Y-121920000D01*
X87450000Y-121900000D02*
X86929998Y-121900000D01*
%TO.N,Net-(C3-Pad2)*%
X93980000Y-96300000D02*
X99060000Y-91220000D01*
X93980000Y-104140000D02*
X93980000Y-96300000D01*
%TO.N,Net-(C5-Pad1)*%
X78740000Y-77470000D02*
X74930000Y-73660000D01*
X78740000Y-88270000D02*
X78740000Y-77470000D01*
%TO.N,Net-(D3-Pad1)*%
X154119753Y-40199753D02*
X153194752Y-39274752D01*
X154119753Y-59901245D02*
X154119753Y-40199753D01*
X153124999Y-60895999D02*
X154119753Y-59901245D01*
X153124999Y-61784001D02*
X153124999Y-60895999D01*
X154975001Y-63634003D02*
X153124999Y-61784001D01*
X154975001Y-88621587D02*
X154975001Y-63634003D01*
X153464990Y-90131598D02*
X154975001Y-88621587D01*
X153464990Y-92751992D02*
X153464990Y-90131598D01*
X154447999Y-93735001D02*
X153464990Y-92751992D01*
X177954411Y-93735001D02*
X154447999Y-93735001D01*
X183285010Y-88404402D02*
X177954411Y-93735001D01*
X183285010Y-84380008D02*
X183285010Y-88404402D01*
X182770001Y-83864999D02*
X183285010Y-84380008D01*
X180449999Y-83864999D02*
X182770001Y-83864999D01*
X158750000Y-62165000D02*
X180449999Y-83864999D01*
X158750000Y-43180000D02*
X158750000Y-62165000D01*
X166370000Y-35560000D02*
X158750000Y-43180000D01*
%TO.N,Net-(LED1-Pad1)*%
X179706410Y-85090000D02*
X181610000Y-85090000D01*
X158299990Y-63683580D02*
X179706410Y-85090000D01*
X164709999Y-33834999D02*
X158299990Y-40245008D01*
X158299990Y-40245008D02*
X158299990Y-63683580D01*
X168030001Y-33834999D02*
X164709999Y-33834999D01*
X168095001Y-33899999D02*
X168030001Y-33834999D01*
X175741412Y-76200000D02*
X168095001Y-68553589D01*
X168095001Y-68553589D02*
X168095001Y-33899999D01*
X194310000Y-76200000D02*
X175741412Y-76200000D01*
%TO.N,Net-(LED3-Pad1)*%
X186690000Y-43180000D02*
X186690000Y-53340000D01*
X181610000Y-38100000D02*
X186690000Y-43180000D01*
%TO.N,Net-(OP1-Pad2)*%
X153670000Y-133350000D02*
X147320000Y-139700000D01*
%TO.N,Net-(OP1-Pad3)*%
X148369498Y-61340000D02*
X148210000Y-61340000D01*
X143754999Y-41665001D02*
X148210000Y-37210000D01*
X143754999Y-48504999D02*
X143754999Y-41665001D01*
X147320000Y-52070000D02*
X143754999Y-48504999D01*
X149990249Y-62271721D02*
X149058528Y-61340000D01*
X149990249Y-63848753D02*
X149990249Y-62271721D01*
X147610001Y-66229001D02*
X149990249Y-63848753D01*
X147610001Y-78520001D02*
X147610001Y-66229001D01*
X149058528Y-61340000D02*
X148210000Y-61340000D01*
X148210000Y-79120000D02*
X147610001Y-78520001D01*
X137230000Y-61340000D02*
X148210000Y-61340000D01*
X132745001Y-65824999D02*
X137230000Y-61340000D01*
%TO.N,Net-(OP2-Pad2)*%
X144780000Y-54990000D02*
X149065248Y-59275248D01*
X139700000Y-55880000D02*
X143510000Y-55880000D01*
X144780000Y-54610000D02*
X144780000Y-54990000D01*
X143510000Y-55880000D02*
X144780000Y-54610000D01*
X144780000Y-52070000D02*
X144780000Y-54610000D01*
%TO.N,Net-(OP3-Pad2)*%
X145834752Y-35145248D02*
X149065248Y-35145248D01*
X139700000Y-41280000D02*
X145834752Y-35145248D01*
X147320000Y-33660000D02*
X145834752Y-35145248D01*
X147320000Y-26030000D02*
X147320000Y-33660000D01*
%TO.N,Net-(R3-Pad2)*%
X164465000Y-111780000D02*
X164465000Y-112930000D01*
X164375001Y-111690001D02*
X164465000Y-111780000D01*
X155639999Y-111690001D02*
X164375001Y-111690001D01*
X154940000Y-112390000D02*
X155639999Y-111690001D01*
%TD*%
M02*
