%TF.GenerationSoftware,KiCad,Pcbnew,(5.1.10)-1*%
%TF.CreationDate,2021-06-16T23:55:04+02:00*%
%TF.ProjectId,_Final_EEE3088Project,5f46696e-616c-45f4-9545-453330383850,rev?*%
%TF.SameCoordinates,Original*%
%TF.FileFunction,Copper,L1,Top*%
%TF.FilePolarity,Positive*%
%FSLAX46Y46*%
G04 Gerber Fmt 4.6, Leading zero omitted, Abs format (unit mm)*
G04 Created by KiCad (PCBNEW (5.1.10)-1) date 2021-06-16 23:55:04*
%MOMM*%
%LPD*%
G01*
G04 APERTURE LIST*
%TA.AperFunction,ComponentPad*%
%ADD10O,1.400000X1.400000*%
%TD*%
%TA.AperFunction,ComponentPad*%
%ADD11C,1.400000*%
%TD*%
%TA.AperFunction,SMDPad,CuDef*%
%ADD12R,0.700000X0.250000*%
%TD*%
%TA.AperFunction,SMDPad,CuDef*%
%ADD13R,1.700000X3.300000*%
%TD*%
%TA.AperFunction,ComponentPad*%
%ADD14C,1.200000*%
%TD*%
%TA.AperFunction,ComponentPad*%
%ADD15R,1.200000X1.200000*%
%TD*%
%TA.AperFunction,ComponentPad*%
%ADD16R,2.240000X2.240000*%
%TD*%
%TA.AperFunction,ComponentPad*%
%ADD17O,2.240000X2.240000*%
%TD*%
%TA.AperFunction,ComponentPad*%
%ADD18R,1.800000X1.800000*%
%TD*%
%TA.AperFunction,ComponentPad*%
%ADD19O,1.800000X1.800000*%
%TD*%
%TA.AperFunction,ComponentPad*%
%ADD20R,1.350000X1.350000*%
%TD*%
%TA.AperFunction,ComponentPad*%
%ADD21O,1.350000X1.350000*%
%TD*%
%TA.AperFunction,ComponentPad*%
%ADD22C,1.600000*%
%TD*%
%TA.AperFunction,ComponentPad*%
%ADD23O,1.600000X1.600000*%
%TD*%
%TA.AperFunction,ComponentPad*%
%ADD24C,1.800000*%
%TD*%
%TA.AperFunction,ComponentPad*%
%ADD25O,1.600000X1.200000*%
%TD*%
%TA.AperFunction,ComponentPad*%
%ADD26O,1.200000X1.200000*%
%TD*%
%TA.AperFunction,SMDPad,CuDef*%
%ADD27R,1.800000X0.800000*%
%TD*%
%TA.AperFunction,ViaPad*%
%ADD28C,0.800000*%
%TD*%
%TA.AperFunction,Conductor*%
%ADD29C,0.250000*%
%TD*%
G04 APERTURE END LIST*
D10*
%TO.P,R5,2*%
%TO.N,Net-(Buck/Boost1-Pad11)*%
X107720000Y-80200000D03*
D11*
%TO.P,R5,1*%
%TO.N,Net-(C3-Pad2)*%
X112800000Y-80200000D03*
%TD*%
%TO.P,R4,1*%
%TO.N,Net-(Buck/Boost1-Pad7)*%
X109800000Y-83700000D03*
D10*
%TO.P,R4,2*%
%TO.N,GND*%
X114880000Y-83700000D03*
%TD*%
D12*
%TO.P,Buck/Boost1,1*%
%TO.N,Net-(Buck/Boost1-Pad1)*%
X101850000Y-80450000D03*
%TO.P,Buck/Boost1,2*%
%TO.N,Net-(Buck/Boost1-Pad2)*%
X101850000Y-80950000D03*
%TO.P,Buck/Boost1,3*%
%TO.N,GND*%
X101850000Y-81450000D03*
%TO.P,Buck/Boost1,4*%
%TO.N,Net-(Buck/Boost1-Pad4)*%
X101850000Y-81950000D03*
%TO.P,Buck/Boost1,5*%
%TO.N,GND*%
X101850000Y-82450000D03*
%TO.P,Buck/Boost1,6*%
%TO.N,Net-(Buck/Boost1-Pad6)*%
X101850000Y-82950000D03*
%TO.P,Buck/Boost1,7*%
%TO.N,Net-(Buck/Boost1-Pad7)*%
X104750000Y-82950000D03*
%TO.P,Buck/Boost1,8*%
%TO.N,/Vreg*%
X104750000Y-82450000D03*
%TO.P,Buck/Boost1,9*%
%TO.N,Vin*%
X104750000Y-81950000D03*
%TO.P,Buck/Boost1,10*%
%TO.N,GND*%
X104750000Y-81450000D03*
%TO.P,Buck/Boost1,11*%
%TO.N,Net-(Buck/Boost1-Pad11)*%
X104750000Y-80950000D03*
%TO.P,Buck/Boost1,12*%
%TO.N,Net-(Buck/Boost1-Pad12)*%
X104750000Y-80450000D03*
D13*
%TO.P,Buck/Boost1,13*%
%TO.N,GND*%
X103300000Y-81700000D03*
%TD*%
D14*
%TO.P,C1,2*%
%TO.N,GND*%
X100300000Y-88200000D03*
D15*
%TO.P,C1,1*%
%TO.N,Net-(Buck/Boost1-Pad1)*%
X98800000Y-88200000D03*
%TD*%
%TO.P,C2,1*%
%TO.N,Vin*%
X115800000Y-98700000D03*
D14*
%TO.P,C2,2*%
%TO.N,GND*%
X117300000Y-98700000D03*
%TD*%
D15*
%TO.P,C3,1*%
%TO.N,Net-(Buck/Boost1-Pad12)*%
X118800000Y-81200000D03*
D14*
%TO.P,C3,2*%
%TO.N,Net-(C3-Pad2)*%
X117300000Y-81200000D03*
%TD*%
%TO.P,C4,2*%
%TO.N,GND*%
X100300000Y-93200000D03*
D15*
%TO.P,C4,1*%
%TO.N,Net-(Buck/Boost1-Pad7)*%
X98800000Y-93200000D03*
%TD*%
D14*
%TO.P,C5,2*%
%TO.N,Net-(Buck/Boost1-Pad12)*%
X128800000Y-99700000D03*
D15*
%TO.P,C5,1*%
%TO.N,Net-(C5-Pad1)*%
X130300000Y-99700000D03*
%TD*%
%TO.P,C6,1*%
%TO.N,/Vreg*%
X104800000Y-98200000D03*
D14*
%TO.P,C6,2*%
%TO.N,GND*%
X106300000Y-98200000D03*
%TD*%
D16*
%TO.P,D1,1*%
%TO.N,Net-(D1-Pad1)*%
X150260000Y-80450000D03*
D17*
%TO.P,D1,2*%
%TO.N,Net-(D1-Pad2)*%
X152800000Y-80450000D03*
%TD*%
D18*
%TO.P,D2,1*%
%TO.N,Net-(D2-Pad1)*%
X149800000Y-87450000D03*
D19*
%TO.P,D2,2*%
%TO.N,Net-(D2-Pad2)*%
X152340000Y-87450000D03*
%TD*%
%TO.P,D3,2*%
%TO.N,Net-(D3-Pad2)*%
X152840000Y-92200000D03*
D18*
%TO.P,D3,1*%
%TO.N,Net-(D3-Pad1)*%
X150300000Y-92200000D03*
%TD*%
D20*
%TO.P,J1,1*%
%TO.N,Vin*%
X110300000Y-76700000D03*
D21*
%TO.P,J1,2*%
%TO.N,Net-(J1-Pad2)*%
X110300000Y-74700000D03*
%TO.P,J1,3*%
%TO.N,Net-(J1-Pad3)*%
X112300000Y-76700000D03*
%TO.P,J1,4*%
%TO.N,Net-(J1-Pad4)*%
X112300000Y-74700000D03*
%TO.P,J1,5*%
%TO.N,Net-(J1-Pad5)*%
X114300000Y-76700000D03*
%TO.P,J1,6*%
%TO.N,GND*%
X114300000Y-74700000D03*
%TO.P,J1,7*%
%TO.N,Net-(J1-Pad7)*%
X116300000Y-76700000D03*
%TO.P,J1,8*%
%TO.N,Net-(J1-Pad8)*%
X116300000Y-74700000D03*
%TO.P,J1,9*%
%TO.N,Net-(J1-Pad9)*%
X118300000Y-76700000D03*
%TO.P,J1,10*%
%TO.N,Net-(J1-Pad10)*%
X118300000Y-74700000D03*
%TO.P,J1,11*%
%TO.N,Net-(J1-Pad11)*%
X120300000Y-76700000D03*
%TO.P,J1,12*%
%TO.N,Net-(J1-Pad12)*%
X120300000Y-74700000D03*
%TO.P,J1,13*%
%TO.N,Net-(J1-Pad13)*%
X122300000Y-76700000D03*
%TO.P,J1,14*%
%TO.N,Net-(J1-Pad14)*%
X122300000Y-74700000D03*
%TO.P,J1,15*%
%TO.N,Net-(J1-Pad15)*%
X124300000Y-76700000D03*
%TO.P,J1,16*%
%TO.N,Net-(J1-Pad16)*%
X124300000Y-74700000D03*
%TO.P,J1,17*%
%TO.N,Net-(J1-Pad17)*%
X126300000Y-76700000D03*
%TO.P,J1,18*%
%TO.N,Net-(J1-Pad18)*%
X126300000Y-74700000D03*
%TO.P,J1,19*%
%TO.N,Net-(J1-Pad19)*%
X128300000Y-76700000D03*
%TO.P,J1,20*%
%TO.N,Net-(J1-Pad20)*%
X128300000Y-74700000D03*
%TO.P,J1,21*%
%TO.N,Net-(J1-Pad21)*%
X130300000Y-76700000D03*
%TO.P,J1,22*%
%TO.N,Net-(J1-Pad22)*%
X130300000Y-74700000D03*
%TO.P,J1,23*%
%TO.N,Net-(J1-Pad23)*%
X132300000Y-76700000D03*
%TO.P,J1,24*%
%TO.N,Net-(J1-Pad24)*%
X132300000Y-74700000D03*
%TO.P,J1,25*%
%TO.N,Net-(J1-Pad25)*%
X134300000Y-76700000D03*
%TO.P,J1,26*%
%TO.N,Net-(J1-Pad26)*%
X134300000Y-74700000D03*
%TO.P,J1,27*%
%TO.N,Net-(J1-Pad27)*%
X136300000Y-76700000D03*
%TO.P,J1,28*%
%TO.N,Net-(J1-Pad28)*%
X136300000Y-74700000D03*
%TO.P,J1,29*%
%TO.N,Net-(J1-Pad29)*%
X138300000Y-76700000D03*
%TO.P,J1,30*%
%TO.N,Net-(J1-Pad30)*%
X138300000Y-74700000D03*
%TO.P,J1,31*%
%TO.N,Net-(J1-Pad31)*%
X140300000Y-76700000D03*
%TO.P,J1,32*%
%TO.N,Net-(J1-Pad32)*%
X140300000Y-74700000D03*
%TO.P,J1,33*%
%TO.N,Net-(J1-Pad33)*%
X142300000Y-76700000D03*
%TO.P,J1,34*%
%TO.N,Net-(J1-Pad34)*%
X142300000Y-74700000D03*
%TO.P,J1,35*%
%TO.N,Net-(J1-Pad35)*%
X144300000Y-76700000D03*
%TO.P,J1,36*%
%TO.N,Net-(J1-Pad36)*%
X144300000Y-74700000D03*
%TO.P,J1,37*%
%TO.N,Net-(J1-Pad37)*%
X146300000Y-76700000D03*
%TO.P,J1,38*%
%TO.N,Net-(J1-Pad38)*%
X146300000Y-74700000D03*
%TO.P,J1,39*%
%TO.N,Net-(J1-Pad39)*%
X148300000Y-76700000D03*
%TO.P,J1,40*%
%TO.N,Net-(J1-Pad40)*%
X148300000Y-74700000D03*
%TD*%
D22*
%TO.P,L1,1*%
%TO.N,Net-(Buck/Boost1-Pad4)*%
X98800000Y-81700000D03*
D23*
%TO.P,L1,2*%
%TO.N,Net-(Buck/Boost1-Pad6)*%
X98800000Y-84240000D03*
%TD*%
D18*
%TO.P,LED1,1*%
%TO.N,Net-(LED1-Pad1)*%
X156300000Y-82700000D03*
D24*
%TO.P,LED1,2*%
%TO.N,Net-(D1-Pad2)*%
X156300000Y-80160000D03*
%TD*%
%TO.P,LED2,2*%
%TO.N,Net-(D2-Pad2)*%
X156300000Y-85660000D03*
D18*
%TO.P,LED2,1*%
%TO.N,Net-(LED2-Pad1)*%
X156300000Y-88200000D03*
%TD*%
%TO.P,LED3,1*%
%TO.N,Net-(LED3-Pad1)*%
X156300000Y-93700000D03*
D24*
%TO.P,LED3,2*%
%TO.N,Net-(D3-Pad2)*%
X156300000Y-91160000D03*
%TD*%
D25*
%TO.P,OP1,1*%
%TO.N,GND*%
X137800000Y-83700000D03*
D26*
%TO.P,OP1,2*%
%TO.N,Net-(OP1-Pad2)*%
X138655248Y-85764752D03*
%TO.P,OP1,3*%
%TO.N,Net-(OP1-Pad3)*%
X140720000Y-86620000D03*
%TO.P,OP1,4*%
%TO.N,GND*%
X142784752Y-85764752D03*
%TO.P,OP1,5*%
%TO.N,Net-(OP1-Pad5)*%
X143640000Y-83700000D03*
%TO.P,OP1,6*%
%TO.N,Net-(D1-Pad1)*%
X142784752Y-81635248D03*
%TO.P,OP1,7*%
%TO.N,Vin*%
X140720000Y-80780000D03*
%TO.P,OP1,8*%
%TO.N,GND*%
X138655248Y-81635248D03*
%TD*%
%TO.P,OP2,8*%
%TO.N,GND*%
X128155248Y-87135248D03*
%TO.P,OP2,7*%
%TO.N,Vin*%
X130220000Y-86280000D03*
%TO.P,OP2,6*%
%TO.N,Net-(D2-Pad1)*%
X132284752Y-87135248D03*
%TO.P,OP2,5*%
%TO.N,Net-(OP2-Pad5)*%
X133140000Y-89200000D03*
%TO.P,OP2,4*%
%TO.N,GND*%
X132284752Y-91264752D03*
%TO.P,OP2,3*%
%TO.N,Net-(OP1-Pad3)*%
X130220000Y-92120000D03*
%TO.P,OP2,2*%
%TO.N,Net-(OP2-Pad2)*%
X128155248Y-91264752D03*
D25*
%TO.P,OP2,1*%
%TO.N,GND*%
X127300000Y-89200000D03*
%TD*%
%TO.P,OP3,1*%
%TO.N,GND*%
X137800000Y-95200000D03*
D26*
%TO.P,OP3,2*%
%TO.N,Net-(OP3-Pad2)*%
X138655248Y-97264752D03*
%TO.P,OP3,3*%
%TO.N,Net-(OP1-Pad3)*%
X140720000Y-98120000D03*
%TO.P,OP3,4*%
%TO.N,GND*%
X142784752Y-97264752D03*
%TO.P,OP3,5*%
%TO.N,Net-(OP3-Pad5)*%
X143640000Y-95200000D03*
%TO.P,OP3,6*%
%TO.N,Net-(D3-Pad1)*%
X142784752Y-93135248D03*
%TO.P,OP3,7*%
%TO.N,Vin*%
X140720000Y-92280000D03*
%TO.P,OP3,8*%
%TO.N,GND*%
X138655248Y-93135248D03*
%TD*%
D10*
%TO.P,R1,2*%
%TO.N,Net-(Buck/Boost1-Pad1)*%
X104400000Y-76950000D03*
D11*
%TO.P,R1,1*%
%TO.N,Vin*%
X106300000Y-76950000D03*
%TD*%
%TO.P,R2,1*%
%TO.N,Net-(Buck/Boost1-Pad2)*%
X109800000Y-97800000D03*
D10*
%TO.P,R2,2*%
%TO.N,GND*%
X109800000Y-99700000D03*
%TD*%
D11*
%TO.P,R3,1*%
%TO.N,/Vreg*%
X108300000Y-86200000D03*
D10*
%TO.P,R3,2*%
%TO.N,Net-(R3-Pad2)*%
X106400000Y-86200000D03*
%TD*%
D11*
%TO.P,R6,1*%
%TO.N,/Vreg*%
X128300000Y-79700000D03*
D10*
%TO.P,R6,2*%
%TO.N,Net-(Buck/Boost1-Pad12)*%
X123220000Y-79700000D03*
%TD*%
D11*
%TO.P,R7,1*%
%TO.N,Net-(Buck/Boost1-Pad12)*%
X125300000Y-100700000D03*
D10*
%TO.P,R7,2*%
%TO.N,GND*%
X120220000Y-100700000D03*
%TD*%
%TO.P,R8,2*%
%TO.N,/Vtemp*%
X124400000Y-95700000D03*
D11*
%TO.P,R8,1*%
%TO.N,Net-(OP1-Pad3)*%
X126300000Y-95700000D03*
%TD*%
D10*
%TO.P,R9,2*%
%TO.N,Net-(C5-Pad1)*%
X106800000Y-89800000D03*
D11*
%TO.P,R9,1*%
%TO.N,/Vreg*%
X106800000Y-91700000D03*
%TD*%
%TO.P,R10,1*%
%TO.N,Net-(LED1-Pad1)*%
X151300000Y-84200000D03*
D10*
%TO.P,R10,2*%
%TO.N,GND*%
X149400000Y-84200000D03*
%TD*%
D11*
%TO.P,R11,1*%
%TO.N,/Vreg*%
X132300000Y-79700000D03*
D10*
%TO.P,R11,2*%
%TO.N,Net-(OP1-Pad2)*%
X134200000Y-79700000D03*
%TD*%
%TO.P,R12,2*%
%TO.N,GND*%
X134380000Y-83200000D03*
D11*
%TO.P,R12,1*%
%TO.N,Net-(OP1-Pad2)*%
X129300000Y-83200000D03*
%TD*%
D10*
%TO.P,R13,2*%
%TO.N,GND*%
X103300000Y-89620000D03*
D11*
%TO.P,R13,1*%
%TO.N,Net-(LED2-Pad1)*%
X103300000Y-94700000D03*
%TD*%
%TO.P,R14,1*%
%TO.N,/Vreg*%
X122800000Y-90700000D03*
D10*
%TO.P,R14,2*%
%TO.N,Net-(OP2-Pad2)*%
X122800000Y-85620000D03*
%TD*%
%TO.P,R15,2*%
%TO.N,GND*%
X134180000Y-95500000D03*
D11*
%TO.P,R15,1*%
%TO.N,Net-(OP2-Pad2)*%
X129100000Y-95500000D03*
%TD*%
D10*
%TO.P,R16,2*%
%TO.N,GND*%
X149400000Y-96700000D03*
D11*
%TO.P,R16,1*%
%TO.N,Net-(LED3-Pad1)*%
X151300000Y-96700000D03*
%TD*%
D10*
%TO.P,R17,2*%
%TO.N,Net-(OP3-Pad2)*%
X137900000Y-101700000D03*
D11*
%TO.P,R17,1*%
%TO.N,/Vreg*%
X139800000Y-101700000D03*
%TD*%
%TO.P,R18,1*%
%TO.N,Net-(OP3-Pad2)*%
X149300000Y-99700000D03*
D10*
%TO.P,R18,2*%
%TO.N,GND*%
X149300000Y-101600000D03*
%TD*%
D27*
%TO.P,TMP1,1*%
%TO.N,Net-(R3-Pad2)*%
X111660000Y-87795000D03*
%TO.P,TMP1,2*%
%TO.N,N/C*%
X111660000Y-89065000D03*
%TO.P,TMP1,3*%
%TO.N,GND*%
X111660000Y-90335000D03*
%TO.P,TMP1,4*%
%TO.N,N/C*%
X111660000Y-91605000D03*
%TO.P,TMP1,5*%
X116940000Y-91605000D03*
%TO.P,TMP1,6*%
X116940000Y-90335000D03*
%TO.P,TMP1,7*%
X116940000Y-89065000D03*
%TO.P,TMP1,8*%
X116940000Y-87795000D03*
%TD*%
D28*
%TO.N,Net-(Buck/Boost1-Pad1)*%
X99134998Y-79700000D03*
%TO.N,Net-(Buck/Boost1-Pad2)*%
X103950000Y-101450000D03*
%TO.N,GND*%
X120400000Y-97400000D03*
X120400000Y-97400000D03*
X109100000Y-89700000D03*
%TO.N,/Vreg*%
X117300000Y-94800000D03*
%TO.N,Net-(Buck/Boost1-Pad12)*%
X106025001Y-79174999D03*
%TO.N,Net-(C5-Pad1)*%
X116000000Y-95000000D03*
%TD*%
D29*
%TO.N,Net-(Buck/Boost1-Pad1)*%
X101850000Y-80450000D02*
X101850000Y-80064998D01*
X104400000Y-76950000D02*
X101850000Y-79500000D01*
X101300000Y-79700000D02*
X101850000Y-80250000D01*
X99134998Y-79700000D02*
X101300000Y-79700000D01*
X101850000Y-80250000D02*
X101850000Y-80450000D01*
X101850000Y-79500000D02*
X101850000Y-80250000D01*
%TO.N,Net-(Buck/Boost1-Pad2)*%
X101850000Y-80950000D02*
X101550000Y-80950000D01*
X102849990Y-98649990D02*
X102849990Y-100349990D01*
X99340001Y-95140001D02*
X102849990Y-98649990D01*
X97424990Y-94246402D02*
X98318589Y-95140001D01*
X98259999Y-80574999D02*
X97424990Y-81410008D01*
X97424990Y-81410008D02*
X97424990Y-94246402D01*
X99340001Y-80574999D02*
X98259999Y-80574999D01*
X98318589Y-95140001D02*
X99340001Y-95140001D01*
X99715002Y-80950000D02*
X99340001Y-80574999D01*
X101850000Y-80950000D02*
X99715002Y-80950000D01*
X102849990Y-100349990D02*
X103950000Y-101450000D01*
X103950000Y-101450000D02*
X104000000Y-101500000D01*
%TO.N,GND*%
X102550000Y-82450000D02*
X103300000Y-81700000D01*
X101850000Y-82450000D02*
X102550000Y-82450000D01*
X103550000Y-81450000D02*
X103300000Y-81700000D01*
X104750000Y-81450000D02*
X103550000Y-81450000D01*
X102450000Y-82450000D02*
X101850000Y-82450000D01*
X102525001Y-82374999D02*
X102450000Y-82450000D01*
X102450000Y-81450000D02*
X102525001Y-81525001D01*
X102525001Y-81525001D02*
X102525001Y-82374999D01*
X101850000Y-81450000D02*
X102450000Y-81450000D01*
X102525001Y-82564999D02*
X102525001Y-85974999D01*
X102460001Y-82499999D02*
X102525001Y-82564999D01*
X101063591Y-82499999D02*
X102460001Y-82499999D01*
X102525001Y-85974999D02*
X100300000Y-88200000D01*
X101113590Y-82450000D02*
X101063591Y-82499999D01*
X101850000Y-82450000D02*
X101113590Y-82450000D01*
X101880000Y-88200000D02*
X103300000Y-89620000D01*
X100300000Y-88200000D02*
X101880000Y-88200000D01*
X114880000Y-80762998D02*
X114880000Y-83700000D01*
X113300000Y-79182998D02*
X114880000Y-80762998D01*
X113300000Y-75700000D02*
X113300000Y-79182998D01*
X114300000Y-74700000D02*
X113300000Y-75700000D01*
X100594998Y-89620000D02*
X103300000Y-89620000D01*
X97874999Y-94060001D02*
X97874999Y-92339999D01*
X97939999Y-94125001D02*
X97874999Y-94060001D01*
X100223527Y-94125001D02*
X97939999Y-94125001D01*
X100300000Y-94048528D02*
X100223527Y-94125001D01*
X97874999Y-92339999D02*
X100594998Y-89620000D01*
X100300000Y-93200000D02*
X100300000Y-94048528D01*
X106300000Y-96182998D02*
X106300000Y-98200000D01*
X103317002Y-93200000D02*
X106300000Y-96182998D01*
X100300000Y-93200000D02*
X103317002Y-93200000D01*
X108300000Y-98200000D02*
X109800000Y-99700000D01*
X106300000Y-98200000D02*
X108300000Y-98200000D01*
X117300000Y-99548528D02*
X117300000Y-98700000D01*
X117148528Y-99700000D02*
X117300000Y-99548528D01*
X109800000Y-99700000D02*
X117148528Y-99700000D01*
X118220000Y-98700000D02*
X120220000Y-100700000D01*
X117300000Y-98700000D02*
X118220000Y-98700000D01*
X147835248Y-85764752D02*
X149400000Y-84200000D01*
X142784752Y-85764752D02*
X147835248Y-85764752D01*
X137800000Y-82490496D02*
X138655248Y-81635248D01*
X137800000Y-83700000D02*
X137800000Y-82490496D01*
X140720000Y-83700000D02*
X137800000Y-83700000D01*
X142784752Y-85764752D02*
X140720000Y-83700000D01*
X118220000Y-98700000D02*
X119100000Y-98700000D01*
X119100000Y-98700000D02*
X120400000Y-97400000D01*
X120400000Y-97400000D02*
X120400000Y-97400000D01*
X120400000Y-97400000D02*
X120400000Y-97400000D01*
X111660000Y-90335000D02*
X109735000Y-90335000D01*
X109735000Y-90335000D02*
X109100000Y-89700000D01*
X109100000Y-89700000D02*
X109100000Y-89700000D01*
%TO.N,Net-(Buck/Boost1-Pad4)*%
X98300000Y-81700000D02*
X98550000Y-81950000D01*
X99550000Y-81950000D02*
X101850000Y-81950000D01*
X99300000Y-81700000D02*
X99550000Y-81950000D01*
%TO.N,Net-(Buck/Boost1-Pad6)*%
X99960000Y-84240000D02*
X98300000Y-84240000D01*
X101850000Y-82950000D02*
X101250000Y-82950000D01*
X100560000Y-84240000D02*
X101850000Y-82950000D01*
X99300000Y-84240000D02*
X100560000Y-84240000D01*
%TO.N,Net-(Buck/Boost1-Pad7)*%
X109050000Y-82950000D02*
X109800000Y-83700000D01*
X104750000Y-82950000D02*
X109050000Y-82950000D01*
X99725001Y-92274999D02*
X98800000Y-93200000D01*
X102162003Y-92274999D02*
X99725001Y-92274999D01*
X104750000Y-89687002D02*
X102162003Y-92274999D01*
X104750000Y-82950000D02*
X104750000Y-89687002D01*
%TO.N,/Vreg*%
X104750000Y-82450000D02*
X105050000Y-82450000D01*
X104750000Y-82450000D02*
X110067002Y-82450000D01*
X128300000Y-79700000D02*
X132300000Y-79700000D01*
X110825001Y-84192001D02*
X108817002Y-86200000D01*
X108817002Y-86200000D02*
X108300000Y-86200000D01*
X110825001Y-83207999D02*
X110825001Y-84192001D01*
X110067002Y-82450000D02*
X110825001Y-83207999D01*
X128300000Y-81637002D02*
X128300000Y-79700000D01*
X122800000Y-87137002D02*
X128300000Y-81637002D01*
X122800000Y-90700000D02*
X122800000Y-87137002D01*
X112444997Y-94274999D02*
X116774999Y-94274999D01*
X108374999Y-90205001D02*
X112444997Y-94274999D01*
X105374999Y-85707999D02*
X105374999Y-86774999D01*
X108374999Y-89774999D02*
X108374999Y-90205001D01*
X106208006Y-84874992D02*
X105374999Y-85707999D01*
X105374999Y-86774999D02*
X108374999Y-89774999D01*
X110142010Y-84874992D02*
X106208006Y-84874992D01*
X110825001Y-84192001D02*
X110142010Y-84874992D01*
X116774999Y-94274999D02*
X117300000Y-94800000D01*
X117300000Y-94800000D02*
X117300000Y-94800000D01*
%TO.N,Vin*%
X110050000Y-76950000D02*
X110300000Y-76700000D01*
X106300000Y-76950000D02*
X110050000Y-76950000D01*
X138614999Y-78674999D02*
X140720000Y-80780000D01*
X127807999Y-78674999D02*
X138614999Y-78674999D01*
X121774999Y-95228411D02*
X121774999Y-84707999D01*
X121774999Y-84707999D02*
X127807999Y-78674999D01*
X116725001Y-97774999D02*
X115800000Y-98700000D01*
X117725001Y-97774999D02*
X116725001Y-97774999D01*
X120271589Y-95228411D02*
X117725001Y-97774999D01*
X121774999Y-95228411D02*
X120271589Y-95228411D01*
X108745001Y-80692001D02*
X107487002Y-81950000D01*
X108745001Y-79395001D02*
X108745001Y-80692001D01*
X106300000Y-76950000D02*
X108745001Y-79395001D01*
X118165001Y-96334999D02*
X115800000Y-98700000D01*
X118165001Y-87134999D02*
X118165001Y-96334999D01*
X118100001Y-87069999D02*
X118165001Y-87134999D01*
X115779999Y-87069999D02*
X118100001Y-87069999D01*
X110660000Y-81950000D02*
X115779999Y-87069999D01*
X107350000Y-81950000D02*
X110660000Y-81950000D01*
X107487002Y-81950000D02*
X107350000Y-81950000D01*
X107350000Y-81950000D02*
X104750000Y-81950000D01*
%TO.N,Net-(Buck/Boost1-Pad11)*%
X106100000Y-80200000D02*
X107720000Y-80200000D01*
X105350000Y-80950000D02*
X106100000Y-80200000D01*
X104750000Y-80950000D02*
X105350000Y-80950000D01*
%TO.N,Net-(Buck/Boost1-Pad12)*%
X127800000Y-100700000D02*
X128800000Y-99700000D01*
X125300000Y-100700000D02*
X127800000Y-100700000D01*
X118800000Y-82050000D02*
X118800000Y-81200000D01*
X104750000Y-80450000D02*
X106025001Y-79174999D01*
X121720000Y-81200000D02*
X123220000Y-79700000D01*
X118800000Y-81200000D02*
X121720000Y-81200000D01*
X106025001Y-79174999D02*
X106025001Y-79174999D01*
%TO.N,Net-(C5-Pad1)*%
X112000000Y-95000000D02*
X116000000Y-95000000D01*
X106800000Y-89800000D02*
X112000000Y-95000000D01*
%TO.N,Net-(D1-Pad1)*%
X148474753Y-82235247D02*
X150260000Y-80450000D01*
X143384751Y-82235247D02*
X148474753Y-82235247D01*
X142784752Y-81635248D02*
X143384751Y-82235247D01*
%TO.N,Net-(D1-Pad2)*%
X156010000Y-80450000D02*
X156300000Y-80160000D01*
X152800000Y-80450000D02*
X156010000Y-80450000D01*
%TO.N,Net-(D2-Pad2)*%
X154510000Y-87450000D02*
X156300000Y-85660000D01*
X152340000Y-87450000D02*
X154510000Y-87450000D01*
%TO.N,Net-(D2-Pad1)*%
X141345997Y-85694999D02*
X143100998Y-87450000D01*
X140275999Y-85694999D02*
X141345997Y-85694999D01*
X138835750Y-87135248D02*
X140275999Y-85694999D01*
X143100998Y-87450000D02*
X149800000Y-87450000D01*
X132284752Y-87135248D02*
X138835750Y-87135248D01*
%TO.N,Net-(D3-Pad2)*%
X155260000Y-92200000D02*
X156300000Y-91160000D01*
X152840000Y-92200000D02*
X155260000Y-92200000D01*
%TO.N,Net-(LED1-Pad1)*%
X152800000Y-82700000D02*
X151300000Y-84200000D01*
X156300000Y-82700000D02*
X152800000Y-82700000D01*
%TO.N,Net-(LED2-Pad1)*%
X159975001Y-91875001D02*
X156300000Y-88200000D01*
X159975001Y-99504001D02*
X159975001Y-91875001D01*
X159104001Y-100375001D02*
X159975001Y-99504001D01*
X157495999Y-100375001D02*
X159104001Y-100375001D01*
X155795997Y-98674999D02*
X157495999Y-100375001D01*
X148807999Y-98674999D02*
X155795997Y-98674999D01*
X148274999Y-99207999D02*
X148807999Y-98674999D01*
X140386377Y-99207999D02*
X148274999Y-99207999D01*
X139580249Y-98401871D02*
X140386377Y-99207999D01*
X139580249Y-96820751D02*
X139580249Y-98401871D01*
X138211247Y-96339751D02*
X139099249Y-96339751D01*
X132226008Y-102324990D02*
X138211247Y-96339751D01*
X106796587Y-102324990D02*
X132226008Y-102324990D01*
X139099249Y-96339751D02*
X139580249Y-96820751D01*
X103300000Y-98828403D02*
X106796587Y-102324990D01*
X103300000Y-94700000D02*
X103300000Y-98828403D01*
%TO.N,Net-(LED3-Pad1)*%
X154300000Y-93700000D02*
X151300000Y-96700000D01*
X156300000Y-93700000D02*
X154300000Y-93700000D01*
%TO.N,Net-(OP1-Pad2)*%
X138356591Y-85764752D02*
X138655248Y-85764752D01*
X136674990Y-84083151D02*
X138356591Y-85764752D01*
X136674990Y-82174990D02*
X136674990Y-84083151D01*
X134200000Y-79700000D02*
X136674990Y-82174990D01*
X130700000Y-83200000D02*
X134200000Y-79700000D01*
X129300000Y-83200000D02*
X130700000Y-83200000D01*
%TO.N,Net-(OP1-Pad3)*%
X141645001Y-97194999D02*
X140720000Y-98120000D01*
X141645001Y-87545001D02*
X141645001Y-97194999D01*
X140720000Y-86620000D02*
X141645001Y-87545001D01*
X134620001Y-92719999D02*
X140720000Y-86620000D01*
X130819999Y-92719999D02*
X134620001Y-92719999D01*
X130220000Y-92120000D02*
X130819999Y-92719999D01*
X129880000Y-92120000D02*
X130220000Y-92120000D01*
X126300000Y-95700000D02*
X129880000Y-92120000D01*
%TO.N,Net-(OP3-Pad2)*%
X138655248Y-98113280D02*
X138655248Y-97264752D01*
X140241968Y-99700000D02*
X138655248Y-98113280D01*
X149300000Y-99700000D02*
X140241968Y-99700000D01*
X138925001Y-100674999D02*
X139266969Y-100674999D01*
X137900000Y-101700000D02*
X138925001Y-100674999D01*
X139266969Y-100674999D02*
X140241968Y-99700000D01*
%TO.N,Net-(R3-Pad2)*%
X108377998Y-87795000D02*
X111660000Y-87795000D01*
X107274999Y-85325001D02*
X107274999Y-86692001D01*
X107274999Y-86692001D02*
X108377998Y-87795000D01*
X106400000Y-86200000D02*
X107274999Y-85325001D01*
%TD*%
M02*
