%TF.GenerationSoftware,KiCad,Pcbnew,(5.1.10)-1*%
%TF.CreationDate,2021-06-16T23:55:04+02:00*%
%TF.ProjectId,_Final_EEE3088Project,5f46696e-616c-45f4-9545-453330383850,rev?*%
%TF.SameCoordinates,Original*%
%TF.FileFunction,Copper,L2,Bot*%
%TF.FilePolarity,Positive*%
%FSLAX46Y46*%
G04 Gerber Fmt 4.6, Leading zero omitted, Abs format (unit mm)*
G04 Created by KiCad (PCBNEW (5.1.10)-1) date 2021-06-16 23:55:04*
%MOMM*%
%LPD*%
G01*
G04 APERTURE LIST*
%TA.AperFunction,ComponentPad*%
%ADD10O,1.400000X1.400000*%
%TD*%
%TA.AperFunction,ComponentPad*%
%ADD11C,1.400000*%
%TD*%
%TA.AperFunction,ComponentPad*%
%ADD12C,1.200000*%
%TD*%
%TA.AperFunction,ComponentPad*%
%ADD13R,1.200000X1.200000*%
%TD*%
%TA.AperFunction,ComponentPad*%
%ADD14R,2.240000X2.240000*%
%TD*%
%TA.AperFunction,ComponentPad*%
%ADD15O,2.240000X2.240000*%
%TD*%
%TA.AperFunction,ComponentPad*%
%ADD16R,1.800000X1.800000*%
%TD*%
%TA.AperFunction,ComponentPad*%
%ADD17O,1.800000X1.800000*%
%TD*%
%TA.AperFunction,ComponentPad*%
%ADD18R,1.350000X1.350000*%
%TD*%
%TA.AperFunction,ComponentPad*%
%ADD19O,1.350000X1.350000*%
%TD*%
%TA.AperFunction,ComponentPad*%
%ADD20C,1.600000*%
%TD*%
%TA.AperFunction,ComponentPad*%
%ADD21O,1.600000X1.600000*%
%TD*%
%TA.AperFunction,ComponentPad*%
%ADD22C,1.800000*%
%TD*%
%TA.AperFunction,ComponentPad*%
%ADD23O,1.600000X1.200000*%
%TD*%
%TA.AperFunction,ComponentPad*%
%ADD24O,1.200000X1.200000*%
%TD*%
%TA.AperFunction,ViaPad*%
%ADD25C,0.800000*%
%TD*%
%TA.AperFunction,Conductor*%
%ADD26C,0.250000*%
%TD*%
G04 APERTURE END LIST*
D10*
%TO.P,R5,2*%
%TO.N,Net-(Buck/Boost1-Pad11)*%
X107720000Y-80200000D03*
D11*
%TO.P,R5,1*%
%TO.N,Net-(C3-Pad2)*%
X112800000Y-80200000D03*
%TD*%
%TO.P,R4,1*%
%TO.N,Net-(Buck/Boost1-Pad7)*%
X109800000Y-83700000D03*
D10*
%TO.P,R4,2*%
%TO.N,GND*%
X114880000Y-83700000D03*
%TD*%
D12*
%TO.P,C1,2*%
%TO.N,GND*%
X100300000Y-88200000D03*
D13*
%TO.P,C1,1*%
%TO.N,Net-(Buck/Boost1-Pad1)*%
X98800000Y-88200000D03*
%TD*%
%TO.P,C2,1*%
%TO.N,Vin*%
X115800000Y-98700000D03*
D12*
%TO.P,C2,2*%
%TO.N,GND*%
X117300000Y-98700000D03*
%TD*%
D13*
%TO.P,C3,1*%
%TO.N,Net-(Buck/Boost1-Pad12)*%
X118800000Y-81200000D03*
D12*
%TO.P,C3,2*%
%TO.N,Net-(C3-Pad2)*%
X117300000Y-81200000D03*
%TD*%
%TO.P,C4,2*%
%TO.N,GND*%
X100300000Y-93200000D03*
D13*
%TO.P,C4,1*%
%TO.N,Net-(Buck/Boost1-Pad7)*%
X98800000Y-93200000D03*
%TD*%
D12*
%TO.P,C5,2*%
%TO.N,Net-(Buck/Boost1-Pad12)*%
X128800000Y-99700000D03*
D13*
%TO.P,C5,1*%
%TO.N,Net-(C5-Pad1)*%
X130300000Y-99700000D03*
%TD*%
%TO.P,C6,1*%
%TO.N,/Vreg*%
X104800000Y-98200000D03*
D12*
%TO.P,C6,2*%
%TO.N,GND*%
X106300000Y-98200000D03*
%TD*%
D14*
%TO.P,D1,1*%
%TO.N,Net-(D1-Pad1)*%
X150260000Y-80450000D03*
D15*
%TO.P,D1,2*%
%TO.N,Net-(D1-Pad2)*%
X152800000Y-80450000D03*
%TD*%
D16*
%TO.P,D2,1*%
%TO.N,Net-(D2-Pad1)*%
X149800000Y-87450000D03*
D17*
%TO.P,D2,2*%
%TO.N,Net-(D2-Pad2)*%
X152340000Y-87450000D03*
%TD*%
%TO.P,D3,2*%
%TO.N,Net-(D3-Pad2)*%
X152840000Y-92200000D03*
D16*
%TO.P,D3,1*%
%TO.N,Net-(D3-Pad1)*%
X150300000Y-92200000D03*
%TD*%
D18*
%TO.P,J1,1*%
%TO.N,Vin*%
X110300000Y-76700000D03*
D19*
%TO.P,J1,2*%
%TO.N,Net-(J1-Pad2)*%
X110300000Y-74700000D03*
%TO.P,J1,3*%
%TO.N,Net-(J1-Pad3)*%
X112300000Y-76700000D03*
%TO.P,J1,4*%
%TO.N,Net-(J1-Pad4)*%
X112300000Y-74700000D03*
%TO.P,J1,5*%
%TO.N,Net-(J1-Pad5)*%
X114300000Y-76700000D03*
%TO.P,J1,6*%
%TO.N,GND*%
X114300000Y-74700000D03*
%TO.P,J1,7*%
%TO.N,Net-(J1-Pad7)*%
X116300000Y-76700000D03*
%TO.P,J1,8*%
%TO.N,Net-(J1-Pad8)*%
X116300000Y-74700000D03*
%TO.P,J1,9*%
%TO.N,Net-(J1-Pad9)*%
X118300000Y-76700000D03*
%TO.P,J1,10*%
%TO.N,Net-(J1-Pad10)*%
X118300000Y-74700000D03*
%TO.P,J1,11*%
%TO.N,Net-(J1-Pad11)*%
X120300000Y-76700000D03*
%TO.P,J1,12*%
%TO.N,Net-(J1-Pad12)*%
X120300000Y-74700000D03*
%TO.P,J1,13*%
%TO.N,Net-(J1-Pad13)*%
X122300000Y-76700000D03*
%TO.P,J1,14*%
%TO.N,Net-(J1-Pad14)*%
X122300000Y-74700000D03*
%TO.P,J1,15*%
%TO.N,Net-(J1-Pad15)*%
X124300000Y-76700000D03*
%TO.P,J1,16*%
%TO.N,Net-(J1-Pad16)*%
X124300000Y-74700000D03*
%TO.P,J1,17*%
%TO.N,Net-(J1-Pad17)*%
X126300000Y-76700000D03*
%TO.P,J1,18*%
%TO.N,Net-(J1-Pad18)*%
X126300000Y-74700000D03*
%TO.P,J1,19*%
%TO.N,Net-(J1-Pad19)*%
X128300000Y-76700000D03*
%TO.P,J1,20*%
%TO.N,Net-(J1-Pad20)*%
X128300000Y-74700000D03*
%TO.P,J1,21*%
%TO.N,Net-(J1-Pad21)*%
X130300000Y-76700000D03*
%TO.P,J1,22*%
%TO.N,Net-(J1-Pad22)*%
X130300000Y-74700000D03*
%TO.P,J1,23*%
%TO.N,Net-(J1-Pad23)*%
X132300000Y-76700000D03*
%TO.P,J1,24*%
%TO.N,Net-(J1-Pad24)*%
X132300000Y-74700000D03*
%TO.P,J1,25*%
%TO.N,Net-(J1-Pad25)*%
X134300000Y-76700000D03*
%TO.P,J1,26*%
%TO.N,Net-(J1-Pad26)*%
X134300000Y-74700000D03*
%TO.P,J1,27*%
%TO.N,Net-(J1-Pad27)*%
X136300000Y-76700000D03*
%TO.P,J1,28*%
%TO.N,Net-(J1-Pad28)*%
X136300000Y-74700000D03*
%TO.P,J1,29*%
%TO.N,Net-(J1-Pad29)*%
X138300000Y-76700000D03*
%TO.P,J1,30*%
%TO.N,Net-(J1-Pad30)*%
X138300000Y-74700000D03*
%TO.P,J1,31*%
%TO.N,Net-(J1-Pad31)*%
X140300000Y-76700000D03*
%TO.P,J1,32*%
%TO.N,Net-(J1-Pad32)*%
X140300000Y-74700000D03*
%TO.P,J1,33*%
%TO.N,Net-(J1-Pad33)*%
X142300000Y-76700000D03*
%TO.P,J1,34*%
%TO.N,Net-(J1-Pad34)*%
X142300000Y-74700000D03*
%TO.P,J1,35*%
%TO.N,Net-(J1-Pad35)*%
X144300000Y-76700000D03*
%TO.P,J1,36*%
%TO.N,Net-(J1-Pad36)*%
X144300000Y-74700000D03*
%TO.P,J1,37*%
%TO.N,Net-(J1-Pad37)*%
X146300000Y-76700000D03*
%TO.P,J1,38*%
%TO.N,Net-(J1-Pad38)*%
X146300000Y-74700000D03*
%TO.P,J1,39*%
%TO.N,Net-(J1-Pad39)*%
X148300000Y-76700000D03*
%TO.P,J1,40*%
%TO.N,Net-(J1-Pad40)*%
X148300000Y-74700000D03*
%TD*%
D20*
%TO.P,L1,1*%
%TO.N,Net-(Buck/Boost1-Pad4)*%
X98800000Y-81700000D03*
D21*
%TO.P,L1,2*%
%TO.N,Net-(Buck/Boost1-Pad6)*%
X98800000Y-84240000D03*
%TD*%
D16*
%TO.P,LED1,1*%
%TO.N,Net-(LED1-Pad1)*%
X156300000Y-82700000D03*
D22*
%TO.P,LED1,2*%
%TO.N,Net-(D1-Pad2)*%
X156300000Y-80160000D03*
%TD*%
%TO.P,LED2,2*%
%TO.N,Net-(D2-Pad2)*%
X156300000Y-85660000D03*
D16*
%TO.P,LED2,1*%
%TO.N,Net-(LED2-Pad1)*%
X156300000Y-88200000D03*
%TD*%
%TO.P,LED3,1*%
%TO.N,Net-(LED3-Pad1)*%
X156300000Y-93700000D03*
D22*
%TO.P,LED3,2*%
%TO.N,Net-(D3-Pad2)*%
X156300000Y-91160000D03*
%TD*%
D23*
%TO.P,OP1,1*%
%TO.N,GND*%
X137800000Y-83700000D03*
D24*
%TO.P,OP1,2*%
%TO.N,Net-(OP1-Pad2)*%
X138655248Y-85764752D03*
%TO.P,OP1,3*%
%TO.N,Net-(OP1-Pad3)*%
X140720000Y-86620000D03*
%TO.P,OP1,4*%
%TO.N,GND*%
X142784752Y-85764752D03*
%TO.P,OP1,5*%
%TO.N,Net-(OP1-Pad5)*%
X143640000Y-83700000D03*
%TO.P,OP1,6*%
%TO.N,Net-(D1-Pad1)*%
X142784752Y-81635248D03*
%TO.P,OP1,7*%
%TO.N,Vin*%
X140720000Y-80780000D03*
%TO.P,OP1,8*%
%TO.N,GND*%
X138655248Y-81635248D03*
%TD*%
%TO.P,OP2,8*%
%TO.N,GND*%
X128155248Y-87135248D03*
%TO.P,OP2,7*%
%TO.N,Vin*%
X130220000Y-86280000D03*
%TO.P,OP2,6*%
%TO.N,Net-(D2-Pad1)*%
X132284752Y-87135248D03*
%TO.P,OP2,5*%
%TO.N,Net-(OP2-Pad5)*%
X133140000Y-89200000D03*
%TO.P,OP2,4*%
%TO.N,GND*%
X132284752Y-91264752D03*
%TO.P,OP2,3*%
%TO.N,Net-(OP1-Pad3)*%
X130220000Y-92120000D03*
%TO.P,OP2,2*%
%TO.N,Net-(OP2-Pad2)*%
X128155248Y-91264752D03*
D23*
%TO.P,OP2,1*%
%TO.N,GND*%
X127300000Y-89200000D03*
%TD*%
%TO.P,OP3,1*%
%TO.N,GND*%
X137800000Y-95200000D03*
D24*
%TO.P,OP3,2*%
%TO.N,Net-(OP3-Pad2)*%
X138655248Y-97264752D03*
%TO.P,OP3,3*%
%TO.N,Net-(OP1-Pad3)*%
X140720000Y-98120000D03*
%TO.P,OP3,4*%
%TO.N,GND*%
X142784752Y-97264752D03*
%TO.P,OP3,5*%
%TO.N,Net-(OP3-Pad5)*%
X143640000Y-95200000D03*
%TO.P,OP3,6*%
%TO.N,Net-(D3-Pad1)*%
X142784752Y-93135248D03*
%TO.P,OP3,7*%
%TO.N,Vin*%
X140720000Y-92280000D03*
%TO.P,OP3,8*%
%TO.N,GND*%
X138655248Y-93135248D03*
%TD*%
D10*
%TO.P,R1,2*%
%TO.N,Net-(Buck/Boost1-Pad1)*%
X104400000Y-76950000D03*
D11*
%TO.P,R1,1*%
%TO.N,Vin*%
X106300000Y-76950000D03*
%TD*%
%TO.P,R2,1*%
%TO.N,Net-(Buck/Boost1-Pad2)*%
X109800000Y-97800000D03*
D10*
%TO.P,R2,2*%
%TO.N,GND*%
X109800000Y-99700000D03*
%TD*%
D11*
%TO.P,R3,1*%
%TO.N,/Vreg*%
X108300000Y-86200000D03*
D10*
%TO.P,R3,2*%
%TO.N,Net-(R3-Pad2)*%
X106400000Y-86200000D03*
%TD*%
D11*
%TO.P,R6,1*%
%TO.N,/Vreg*%
X128300000Y-79700000D03*
D10*
%TO.P,R6,2*%
%TO.N,Net-(Buck/Boost1-Pad12)*%
X123220000Y-79700000D03*
%TD*%
D11*
%TO.P,R7,1*%
%TO.N,Net-(Buck/Boost1-Pad12)*%
X125300000Y-100700000D03*
D10*
%TO.P,R7,2*%
%TO.N,GND*%
X120220000Y-100700000D03*
%TD*%
%TO.P,R8,2*%
%TO.N,/Vtemp*%
X124400000Y-95700000D03*
D11*
%TO.P,R8,1*%
%TO.N,Net-(OP1-Pad3)*%
X126300000Y-95700000D03*
%TD*%
D10*
%TO.P,R9,2*%
%TO.N,Net-(C5-Pad1)*%
X106800000Y-89800000D03*
D11*
%TO.P,R9,1*%
%TO.N,/Vreg*%
X106800000Y-91700000D03*
%TD*%
%TO.P,R10,1*%
%TO.N,Net-(LED1-Pad1)*%
X151300000Y-84200000D03*
D10*
%TO.P,R10,2*%
%TO.N,GND*%
X149400000Y-84200000D03*
%TD*%
D11*
%TO.P,R11,1*%
%TO.N,/Vreg*%
X132300000Y-79700000D03*
D10*
%TO.P,R11,2*%
%TO.N,Net-(OP1-Pad2)*%
X134200000Y-79700000D03*
%TD*%
%TO.P,R12,2*%
%TO.N,GND*%
X134380000Y-83200000D03*
D11*
%TO.P,R12,1*%
%TO.N,Net-(OP1-Pad2)*%
X129300000Y-83200000D03*
%TD*%
D10*
%TO.P,R13,2*%
%TO.N,GND*%
X103300000Y-89620000D03*
D11*
%TO.P,R13,1*%
%TO.N,Net-(LED2-Pad1)*%
X103300000Y-94700000D03*
%TD*%
%TO.P,R14,1*%
%TO.N,/Vreg*%
X122800000Y-90700000D03*
D10*
%TO.P,R14,2*%
%TO.N,Net-(OP2-Pad2)*%
X122800000Y-85620000D03*
%TD*%
%TO.P,R15,2*%
%TO.N,GND*%
X134180000Y-95500000D03*
D11*
%TO.P,R15,1*%
%TO.N,Net-(OP2-Pad2)*%
X129100000Y-95500000D03*
%TD*%
D10*
%TO.P,R16,2*%
%TO.N,GND*%
X149400000Y-96700000D03*
D11*
%TO.P,R16,1*%
%TO.N,Net-(LED3-Pad1)*%
X151300000Y-96700000D03*
%TD*%
D10*
%TO.P,R17,2*%
%TO.N,Net-(OP3-Pad2)*%
X137900000Y-101700000D03*
D11*
%TO.P,R17,1*%
%TO.N,/Vreg*%
X139800000Y-101700000D03*
%TD*%
%TO.P,R18,1*%
%TO.N,Net-(OP3-Pad2)*%
X149300000Y-99700000D03*
D10*
%TO.P,R18,2*%
%TO.N,GND*%
X149300000Y-101600000D03*
%TD*%
D25*
%TO.N,Net-(Buck/Boost1-Pad1)*%
X99134998Y-79700000D03*
%TO.N,Net-(Buck/Boost1-Pad2)*%
X103950000Y-101450000D03*
%TO.N,GND*%
X120400000Y-97400000D03*
X120400000Y-97400000D03*
X109100000Y-89700000D03*
%TO.N,/Vreg*%
X117300000Y-94800000D03*
%TO.N,Net-(Buck/Boost1-Pad12)*%
X106025001Y-79174999D03*
%TO.N,Net-(C5-Pad1)*%
X116000000Y-95000000D03*
%TD*%
D26*
%TO.N,Net-(Buck/Boost1-Pad1)*%
X97674999Y-81159999D02*
X99134998Y-79700000D01*
X97674999Y-87074999D02*
X97674999Y-81159999D01*
X98800000Y-88200000D02*
X97674999Y-87074999D01*
X99134998Y-79700000D02*
X99134998Y-79700000D01*
%TO.N,Net-(Buck/Boost1-Pad2)*%
X109800000Y-98182998D02*
X109800000Y-97800000D01*
X106532998Y-101450000D02*
X109800000Y-98182998D01*
X103950000Y-101450000D02*
X106532998Y-101450000D01*
%TO.N,GND*%
X134880000Y-93860000D02*
X132284752Y-91264752D01*
X134880000Y-95200000D02*
X134880000Y-93860000D01*
X130220000Y-89200000D02*
X127300000Y-89200000D01*
X134880000Y-95200000D02*
X137800000Y-95200000D01*
X137800000Y-93990496D02*
X138655248Y-93135248D01*
X137800000Y-95200000D02*
X137800000Y-93990496D01*
X140720000Y-95200000D02*
X142784752Y-97264752D01*
X137800000Y-95200000D02*
X140720000Y-95200000D01*
X148235249Y-97864751D02*
X149400000Y-96700000D01*
X142784752Y-97264752D02*
X143384751Y-97864751D01*
X148981753Y-97864751D02*
X147764751Y-97864751D01*
X150325001Y-100574999D02*
X150325001Y-99207999D01*
X149300000Y-101600000D02*
X150325001Y-100574999D01*
X150325001Y-99207999D02*
X148981753Y-97864751D01*
X147764751Y-97864751D02*
X148235249Y-97864751D01*
X143384751Y-97864751D02*
X147764751Y-97864751D01*
X137300000Y-83200000D02*
X137800000Y-83700000D01*
X134380000Y-83200000D02*
X137300000Y-83200000D01*
X129294999Y-85835999D02*
X129294999Y-88274999D01*
X134380000Y-83200000D02*
X131930998Y-83200000D01*
X130310000Y-89290000D02*
X130220000Y-89200000D01*
X132284752Y-91264752D02*
X130310000Y-89290000D01*
X128155248Y-87135248D02*
X129610000Y-88590000D01*
X129610000Y-88590000D02*
X130310000Y-89290000D01*
X129294999Y-88274999D02*
X129610000Y-88590000D01*
X127300000Y-88602998D02*
X127300000Y-89200000D01*
X123292001Y-84594999D02*
X127300000Y-88602998D01*
X122307999Y-84594999D02*
X123292001Y-84594999D01*
X120400000Y-97400000D02*
X120400000Y-86502998D01*
X117800000Y-83700000D02*
X120501499Y-86401499D01*
X114880000Y-83700000D02*
X117800000Y-83700000D01*
X120501499Y-86401499D02*
X122307999Y-84594999D01*
X120400000Y-86502998D02*
X120501499Y-86401499D01*
X131930998Y-83200000D02*
X129294999Y-85835999D01*
X102274999Y-90645001D02*
X103300000Y-89620000D01*
X102274999Y-100848001D02*
X102274999Y-90645001D01*
X125342001Y-102175001D02*
X103601999Y-102175001D01*
X126325001Y-101192001D02*
X125342001Y-102175001D01*
X103601999Y-102175001D02*
X102274999Y-100848001D01*
X126325001Y-100207999D02*
X126325001Y-101192001D01*
X118009306Y-99174991D02*
X125291993Y-99174991D01*
X125291993Y-99174991D02*
X126325001Y-100207999D01*
X109100000Y-90265685D02*
X118009306Y-99174991D01*
X109100000Y-89700000D02*
X109100000Y-90265685D01*
X134580000Y-95500000D02*
X134880000Y-95200000D01*
X134180000Y-95500000D02*
X134580000Y-95500000D01*
%TO.N,/Vreg*%
X104800000Y-93700000D02*
X106800000Y-91700000D01*
X104800000Y-98200000D02*
X104800000Y-93700000D01*
X107825001Y-86674999D02*
X108300000Y-86200000D01*
X107825001Y-90674999D02*
X107825001Y-86674999D01*
X106800000Y-91700000D02*
X107825001Y-90674999D01*
X139800000Y-101700000D02*
X139417002Y-101700000D01*
X129592001Y-96525001D02*
X128625001Y-96525001D01*
X130250009Y-95866993D02*
X129592001Y-96525001D01*
X130250009Y-95013599D02*
X130250009Y-95866993D01*
X128625001Y-96525001D02*
X122800000Y-90700000D01*
X135911409Y-100674999D02*
X130250009Y-95013599D01*
X138774999Y-100674999D02*
X135911409Y-100674999D01*
X139800000Y-101700000D02*
X138774999Y-100674999D01*
X129162010Y-96777008D02*
X128877008Y-96777008D01*
X131225001Y-100560001D02*
X131225001Y-98839999D01*
X131160001Y-100625001D02*
X131225001Y-100560001D01*
X128877008Y-96777008D02*
X122800000Y-90700000D01*
X131225001Y-98839999D02*
X129162010Y-96777008D01*
X128355999Y-100625001D02*
X131160001Y-100625001D01*
X126306009Y-98575011D02*
X128355999Y-100625001D01*
X118502009Y-98575011D02*
X126306009Y-98575011D01*
X115274999Y-94651999D02*
X115274999Y-95348001D01*
X115274999Y-95348001D02*
X118502009Y-98575011D01*
X116774999Y-94274999D02*
X115651999Y-94274999D01*
X115651999Y-94274999D02*
X115274999Y-94651999D01*
X117300000Y-94800000D02*
X116774999Y-94274999D01*
%TO.N,Vin*%
X131840751Y-88060249D02*
X130220000Y-86439498D01*
X140648753Y-88060249D02*
X131840751Y-88060249D01*
X130220000Y-86439498D02*
X130220000Y-86280000D01*
X141645001Y-87064001D02*
X140648753Y-88060249D01*
X141645001Y-81705001D02*
X141645001Y-87064001D01*
X140720000Y-80780000D02*
X141645001Y-81705001D01*
X140720000Y-88131496D02*
X140648753Y-88060249D01*
X140720000Y-92280000D02*
X140720000Y-88131496D01*
%TO.N,Net-(Buck/Boost1-Pad12)*%
X116774999Y-79174999D02*
X118800000Y-81200000D01*
X106025001Y-79174999D02*
X116774999Y-79174999D01*
X107771589Y-82674999D02*
X117325001Y-82674999D01*
X104349990Y-86096598D02*
X107771589Y-82674999D01*
X104349990Y-96865008D02*
X104349990Y-86096598D01*
X103874999Y-97339999D02*
X104349990Y-96865008D01*
X117325001Y-82674999D02*
X118800000Y-81200000D01*
X103874999Y-99060001D02*
X103874999Y-97339999D01*
X106744001Y-99125001D02*
X103939999Y-99125001D01*
X107225001Y-98644001D02*
X106744001Y-99125001D01*
X103939999Y-99125001D02*
X103874999Y-99060001D01*
X107225001Y-93538593D02*
X107225001Y-98644001D01*
X124225001Y-99625001D02*
X113311409Y-99625001D01*
X113311409Y-99625001D02*
X107225001Y-93538593D01*
X125300000Y-100700000D02*
X124225001Y-99625001D01*
%TO.N,Net-(C3-Pad2)*%
X116300000Y-80200000D02*
X117300000Y-81200000D01*
X112800000Y-80200000D02*
X116300000Y-80200000D01*
%TO.N,Net-(C5-Pad1)*%
X128725001Y-98125001D02*
X119125001Y-98125001D01*
X130300000Y-99700000D02*
X128725001Y-98125001D01*
X119125001Y-98125001D02*
X116000000Y-95000000D01*
X116000000Y-95000000D02*
X116000000Y-95000000D01*
%TO.N,Net-(D3-Pad1)*%
X148764753Y-93735247D02*
X150300000Y-92200000D01*
X143384751Y-93735247D02*
X148764753Y-93735247D01*
X142784752Y-93135248D02*
X143384751Y-93735247D01*
%TO.N,Net-(OP2-Pad2)*%
X128155248Y-93555248D02*
X128155248Y-91264752D01*
X129800000Y-95200000D02*
X128155248Y-93555248D01*
X122800000Y-86758032D02*
X122800000Y-85620000D01*
X127306720Y-91264752D02*
X122800000Y-86758032D01*
X128155248Y-91264752D02*
X127306720Y-91264752D01*
X129500000Y-95500000D02*
X129800000Y-95200000D01*
X129100000Y-95500000D02*
X129500000Y-95500000D01*
%TD*%
M02*
